<svg width="20" height="21" viewBox="0 0 20 21" fill="none" xmlns="http://www.w3.org/2000/svg">
<path d="M1.6665 15.5001C1.6665 14.2164 1.6665 13.5745 1.95544 13.103C2.11712 12.8392 2.33895 12.6174 2.60278 12.4557C3.07429 12.1667 3.71614 12.1667 4.99984 12.1667C6.28354 12.1667 6.92538 12.1667 7.39689 12.4557C7.66073 12.6174 7.88255 12.8392 8.04423 13.103C8.33317 13.5745 8.33317 14.2164 8.33317 15.5001C8.33317 16.7838 8.33317 17.4256 8.04423 17.8971C7.88255 18.161 7.66073 18.3828 7.39689 18.5445C6.92538 18.8334 6.28354 18.8334 4.99984 18.8334C3.71614 18.8334 3.07429 18.8334 2.60278 18.5445C2.33895 18.3828 2.11712 18.161 1.95544 17.8971C1.6665 17.4256 1.6665 16.7838 1.6665 15.5001Z" stroke="#DDDD01" stroke-width="1.2"/>
<path d="M11.6665 15.5001C11.6665 14.2164 11.6665 13.5745 11.9554 13.103C12.1171 12.8392 12.3389 12.6174 12.6028 12.4557C13.0743 12.1667 13.7161 12.1667 14.9998 12.1667C16.2835 12.1667 16.9254 12.1667 17.3969 12.4557C17.6607 12.6174 17.8826 12.8392 18.0442 13.103C18.3332 13.5745 18.3332 14.2164 18.3332 15.5001C18.3332 16.7838 18.3332 17.4256 18.0442 17.8971C17.8826 18.161 17.6607 18.3828 17.3969 18.5445C16.9254 18.8334 16.2835 18.8334 14.9998 18.8334C13.7161 18.8334 13.0743 18.8334 12.6028 18.5445C12.3389 18.3828 12.1171 18.161 11.9554 17.8971C11.6665 17.4256 11.6665 16.7838 11.6665 15.5001Z" stroke="#DDDD01" stroke-width="1.2"/>
<path d="M1.6665 5.50008C1.6665 4.21638 1.6665 3.57453 1.95544 3.10303C2.11712 2.83919 2.33895 2.61737 2.60278 2.45569C3.07429 2.16675 3.71614 2.16675 4.99984 2.16675C6.28354 2.16675 6.92538 2.16675 7.39689 2.45569C7.66073 2.61737 7.88255 2.83919 8.04423 3.10303C8.33317 3.57453 8.33317 4.21638 8.33317 5.50008C8.33317 6.78378 8.33317 7.42563 8.04423 7.89714C7.88255 8.16097 7.66073 8.3828 7.39689 8.54447C6.92538 8.83341 6.28354 8.83341 4.99984 8.83341C3.71614 8.83341 3.07429 8.83341 2.60278 8.54447C2.33895 8.3828 2.11712 8.16097 1.95544 7.89714C1.6665 7.42563 1.6665 6.78378 1.6665 5.50008Z" stroke="#DDDD01" stroke-width="1.2"/>
<path d="M11.6665 5.50008C11.6665 4.21638 11.6665 3.57453 11.9554 3.10303C12.1171 2.83919 12.3389 2.61737 12.6028 2.45569C13.0743 2.16675 13.7161 2.16675 14.9998 2.16675C16.2835 2.16675 16.9254 2.16675 17.3969 2.45569C17.6607 2.61737 17.8826 2.83919 18.0442 3.10303C18.3332 3.57453 18.3332 4.21638 18.3332 5.50008C18.3332 6.78378 18.3332 7.42563 18.0442 7.89714C17.8826 8.16097 17.6607 8.3828 17.3969 8.54447C16.9254 8.83341 16.2835 8.83341 14.9998 8.83341C13.7161 8.83341 13.0743 8.83341 12.6028 8.54447C12.3389 8.3828 12.1171 8.16097 11.9554 7.89714C11.6665 7.42563 11.6665 6.78378 11.6665 5.50008Z" stroke="#DDDD01" stroke-width="1.2"/>
</svg>
