<svg width="64" height="33" viewBox="0 0 64 33" fill="none" xmlns="http://www.w3.org/2000/svg">
<path d="M59.5862 -5.26425H4.41383C2.28087 -5.26425 0.551758 -3.53514 0.551758 -1.40218V33.9082C0.551758 36.0411 2.28087 37.7702 4.41383 37.7702H59.5862C61.7192 37.7702 63.4483 36.0411 63.4483 33.9082V-1.40218C63.4483 -3.53514 61.7192 -5.26425 59.5862 -5.26425Z" fill="white" stroke="#F3F3F3" stroke-width="1.10345"/>
<path fill-rule="evenodd" clip-rule="evenodd" d="M19.3952 10.6547C18.9298 11.2117 18.185 11.651 17.4401 11.5882C17.347 10.8351 17.7116 10.035 18.1384 9.54084C18.6038 8.96815 19.4185 8.56021 20.078 8.52887C20.1556 9.31331 19.853 10.0821 19.3952 10.6547ZM20.0702 11.7373C19.4141 11.6991 18.8154 11.9368 18.3317 12.1288C18.0205 12.2523 17.7569 12.357 17.5564 12.357C17.3314 12.357 17.057 12.2467 16.7489 12.1229C16.3452 11.9608 15.8836 11.7754 15.3995 11.7843C14.2901 11.8 13.2582 12.4354 12.6918 13.4473C11.528 15.4712 12.3892 18.4677 13.5142 20.1151C14.0651 20.9309 14.7245 21.8252 15.5935 21.7938C15.9758 21.7792 16.2508 21.6612 16.5354 21.5391C16.863 21.3985 17.2034 21.2525 17.7349 21.2525C18.248 21.2525 18.5735 21.3947 18.8859 21.5312C19.1829 21.6611 19.4683 21.7857 19.8918 21.7781C20.7918 21.7624 21.3581 20.9623 21.9091 20.1464C22.5035 19.2708 22.7647 18.4163 22.8044 18.2867L22.8091 18.2717C22.8091 18.2717 22.8008 18.2672 22.7878 18.2613C22.589 18.1693 21.0701 17.4663 21.0556 15.581C21.041 13.9987 22.2603 13.1969 22.4523 13.0707C22.464 13.0629 22.4718 13.0578 22.4754 13.0551C21.6995 11.8942 20.4892 11.7686 20.0702 11.7373ZM26.3004 21.6918V9.46239H30.8392C33.1824 9.46239 34.8194 11.0939 34.8194 13.4787C34.8194 15.8634 33.1512 17.5107 30.7772 17.5107H28.178V21.6918H26.3004ZM28.178 11.0626H30.3426C31.972 11.0626 32.903 11.9412 32.903 13.4866C32.903 15.0319 31.972 15.9183 30.3349 15.9183H28.178V11.0626ZM41.0185 20.2249C40.5219 21.1819 39.428 21.7859 38.2487 21.7859C36.503 21.7859 35.2849 20.7348 35.2849 19.1502C35.2849 17.5813 36.4642 16.6793 38.6444 16.5459L40.9875 16.4046V15.7301C40.9875 14.7338 40.3435 14.1925 39.1953 14.1925C38.2487 14.1925 37.5582 14.6868 37.4185 15.4398H35.7271C35.7814 13.8552 37.2556 12.7021 39.2496 12.7021C41.3986 12.7021 42.7953 13.8395 42.7953 15.6045V21.6918H41.0573V20.2249H41.0185ZM38.753 20.3348C37.7522 20.3348 37.1159 19.8484 37.1159 19.1031C37.1159 18.3344 37.7289 17.8872 38.9004 17.8167L40.9875 17.6833V18.3736C40.9875 19.5189 40.0254 20.3348 38.753 20.3348ZM48.5599 22.1704C47.8074 24.3118 46.9461 25.0178 45.115 25.0178C44.9755 25.0178 44.5099 25.0021 44.4012 24.9708V23.5039C44.5176 23.5195 44.8048 23.5352 44.9522 23.5352C45.7823 23.5352 46.2478 23.1822 46.5349 22.2645L46.7056 21.7231L43.5245 12.8197H45.4875L47.6987 20.0445H47.7375L49.9487 12.8197H51.8573L48.5599 22.1704Z" fill="black"/>
</svg>
