<svg width="48" height="49" viewBox="0 0 48 49" fill="none" xmlns="http://www.w3.org/2000/svg">
<path d="M17.4924 11.5493C18.0719 10.9573 18.0618 10.0076 17.4698 9.4281C16.8778 8.84859 15.9281 8.85871 15.3486 9.4507L10.7865 14.111C10.1384 14.773 9.54239 15.3816 9.15463 15.9082C8.78408 16.4114 8.21418 17.3517 8.65803 18.4463C9.10826 19.5567 10.188 19.818 10.807 19.9074C11.4498 20.0003 12.2958 20.0001 13.2097 20L37.9987 20C38.8271 20 39.4987 19.3284 39.4987 18.5C39.4987 17.6716 38.8271 17 37.9987 17H13.3158C12.8592 17 12.4837 16.9993 12.1723 16.9938C12.3943 16.7583 12.6679 16.4777 13.0033 16.1351L17.4924 11.5493Z" fill="#2BB2E1"/>
<path d="M34.6829 32C35.1395 32 35.5149 32.0007 35.8264 32.0062C35.6044 32.2417 35.3308 32.5223 34.9954 32.8649L30.5063 37.4507C29.9268 38.0427 29.9369 38.9924 30.5289 39.5719C31.1209 40.1514 32.0706 40.1413 32.6501 39.5493L37.2121 34.889C37.8603 34.227 38.4563 33.6184 38.844 33.0918C39.2146 32.5886 39.7845 31.6483 39.3406 30.5537C38.8904 29.4433 37.8106 29.182 37.1917 29.0926C36.5489 28.9997 35.7029 28.9999 34.7889 29L10 29C9.17157 29 8.5 29.6716 8.5 30.5C8.5 31.3284 9.17157 32 10 32H34.6829Z" fill="#2BB2E1"/>
</svg>
