<svg width="12" height="13" viewBox="0 0 12 13" fill="none" xmlns="http://www.w3.org/2000/svg">
<path d="M11 9.25L1 9.25" stroke="#000A1E" stroke-width="0.8" stroke-linecap="round" stroke-linejoin="round"/>
<path d="M11 11V8.5C11 7.55719 11 7.08579 10.7071 6.79289C10.4142 6.5 9.94281 6.5 9 6.5H3C2.05719 6.5 1.58579 6.5 1.29289 6.79289C1 7.08579 1 7.55719 1 8.5V11" stroke="#000A1E" stroke-width="0.8" stroke-linecap="round" stroke-linejoin="round"/>
<path d="M5.5 6.5V5.60668C5.5 5.41636 5.47139 5.3527 5.32487 5.27769C5.01973 5.12146 4.64933 5 4.25 5C3.85067 5 3.48027 5.12146 3.17513 5.27769C3.02861 5.3527 3 5.41636 3 5.60668L3 6.5" stroke="#000A1E" stroke-width="0.6" stroke-linecap="round"/>
<path d="M9 6.5V5.60668C9 5.41636 8.97139 5.3527 8.82487 5.27769C8.51972 5.12146 8.14933 5 7.75 5C7.35067 5 6.98027 5.12146 6.67513 5.27769C6.52861 5.3527 6.5 5.41636 6.5 5.60668L6.5 6.5" stroke="#000A1E" stroke-width="0.6" stroke-linecap="round"/>
<path d="M10.5 6.5V4.18028C10.5 3.83446 10.5 3.66155 10.4039 3.49826C10.3079 3.33497 10.171 3.25045 9.89721 3.08141C8.79343 2.39989 7.44967 2 6 2C4.55033 2 3.20657 2.39989 2.10279 3.08141C1.82902 3.25045 1.69213 3.33497 1.59607 3.49826C1.5 3.66155 1.5 3.83446 1.5 4.18028V6.5" stroke="#000A1E" stroke-width="0.8" stroke-linecap="round"/>
</svg>
