<svg width="24" height="25" viewBox="0 0 24 25" fill="none" xmlns="http://www.w3.org/2000/svg">
<path d="M22 17.7529H2" stroke="#DDDD01" stroke-width="1.4" stroke-linecap="round" stroke-linejoin="round"/>
<path d="M22 21.2529V16.2529C22 14.3673 22 13.4245 21.4142 12.8387C20.8284 12.2529 19.8856 12.2529 18 12.2529H6C4.11438 12.2529 3.17157 12.2529 2.58579 12.8387C2 13.4245 2 14.3673 2 16.2529V21.2529" stroke="#DDDD01" stroke-width="1.4" stroke-linecap="round" stroke-linejoin="round"/>
<path d="M11 12.2529V10.4663C11 10.0857 10.9428 9.95834 10.6497 9.80831C10.0395 9.49585 9.29865 9.25293 8.5 9.25293C7.70135 9.25293 6.96055 9.49585 6.35025 9.80831C6.05721 9.95834 6 10.0857 6 10.4663L6 12.2529" stroke="#DDDD01" stroke-width="1.2" stroke-linecap="round"/>
<path d="M18 12.2529V10.4663C18 10.0857 17.9428 9.95834 17.6497 9.80831C17.0395 9.49585 16.2987 9.25293 15.5 9.25293C14.7013 9.25293 13.9605 9.49585 13.3503 9.80831C13.0572 9.95834 13 10.0857 13 10.4663L13 12.2529" stroke="#DDDD01" stroke-width="1.2" stroke-linecap="round"/>
<path d="M21 12.2529V7.6135C21 6.92186 21 6.57604 20.8079 6.24946C20.6157 5.92288 20.342 5.75384 19.7944 5.41576C17.5869 4.05271 14.8993 3.25293 12 3.25293C9.10067 3.25293 6.41314 4.05271 4.20558 5.41576C3.65804 5.75384 3.38427 5.92288 3.19213 6.24946C3 6.57604 3 6.92186 3 7.6135V12.2529" stroke="#DDDD01" stroke-width="1.4" stroke-linecap="round"/>
</svg>
