<svg width="24" height="25" viewBox="0 0 24 25" fill="none" xmlns="http://www.w3.org/2000/svg">
<path d="M2 21.4461C2.68524 22.4973 3.57104 22.4973 4.27299 21.4461C6.52985 17.9937 8.67954 23.9294 10.273 21.4851C12.703 17.8224 14.4508 24.1748 16.273 21.4461C18.6492 17.8111 20.1295 23.8305 22 21.8371" stroke="#2BB2E1" stroke-width="1.5" stroke-linecap="round"/>
<path d="M3.57228 17.2529L2.07481 12.8986C1.80373 12.1104 2.30283 11.2529 3.03273 11.2529H20.8582C23.9522 11.2529 19.9943 17.2529 17.9966 17.2529" stroke="#2BB2E1" stroke-width="1.5" stroke-linecap="round" stroke-linejoin="round"/>
<path d="M18 11.2529L15.201 7.75415C14.4419 6.80529 13.2926 6.25293 12.0775 6.25293H8C6.89543 6.25293 6 7.14836 6 8.25293V11.2529" stroke="#2BB2E1" stroke-width="1.5" stroke-linecap="round" stroke-linejoin="round"/>
<path d="M10 6.25293V3.25293C10 2.70064 9.55228 2.25293 9 2.25293H8" stroke="#2BB2E1" stroke-width="1.5" stroke-linecap="round" stroke-linejoin="round"/>
</svg>
