<svg width="21" height="21" viewBox="0 0 21 21" fill="none" xmlns="http://www.w3.org/2000/svg">
<path d="M9.66602 11.0859H13.8327M7.16602 11.0859H7.1735M11.3327 14.4193H7.16602M13.8327 14.4193H13.8252" stroke="#666666" stroke-width="1.2" stroke-linecap="round" stroke-linejoin="round"/>
<path d="M15.5 1.91943V3.5861M5.5 1.91943V3.5861" stroke="#666666" stroke-width="1.2" stroke-linecap="round" stroke-linejoin="round"/>
<path d="M2.58301 10.4554C2.58301 6.8243 2.58301 5.00875 3.62644 3.88072C4.66987 2.75269 6.34925 2.75269 9.70801 2.75269H11.2913C14.6501 2.75269 16.3295 2.75269 17.3729 3.88072C18.4163 5.00875 18.4163 6.8243 18.4163 10.4554V10.8833C18.4163 14.5144 18.4163 16.3299 17.3729 17.458C16.3295 18.586 14.6501 18.586 11.2913 18.586H9.70801C6.34925 18.586 4.66987 18.586 3.62644 17.458C2.58301 16.3299 2.58301 14.5144 2.58301 10.8833V10.4554Z" stroke="#666666" stroke-width="1.2" stroke-linecap="round" stroke-linejoin="round"/>
<path d="M3 6.91943H18" stroke="#666666" stroke-width="1.2" stroke-linecap="round" stroke-linejoin="round"/>
</svg>
