<svg width="24" height="25" viewBox="0 0 24 25" fill="none" xmlns="http://www.w3.org/2000/svg">
<path d="M2.06571 12.1661C2.18114 11.5363 2.68891 10.8925 3.50833 10.3368C4.98376 9.33617 6.66888 9.34029 8.35557 9.27784C8.91534 9.25709 10.4184 9.25025 12 9.25384C13.5816 9.25025 15.0847 9.25709 15.6444 9.27784C17.3311 9.34029 19.0162 9.33617 20.4917 10.3368C21.3111 10.8925 21.8189 11.5363 21.9343 12.1661C22.0334 12.7066 22.0181 14.5613 21.9038 15.8702C21.8435 16.5603 21.7822 16.8962 21.6906 17.0373C21.4143 17.4633 20.6166 17.8214 19.4432 18.0464C18.342 18.2575 18.5057 18.2529 12 18.2529C5.49426 18.2529 5.65801 18.2575 4.55683 18.0464C3.38339 17.8214 2.58573 17.4633 2.3094 17.0373C2.21784 16.8962 2.15649 16.5603 2.0962 15.8702C1.98188 14.5613 1.9666 12.7066 2.06571 12.1661Z" stroke="#2BB2E1" stroke-width="1.5" stroke-linecap="round" stroke-linejoin="round"/>
<path d="M4.5 9.25293L5.81325 4.74304C5.93387 4.44302 6.1683 4.19244 6.49868 4.08009C9.74166 2.97721 14.2583 2.97721 17.5013 4.08009C17.8317 4.19244 18.0661 4.44302 18.1868 4.74304L19.5 9.25293" stroke="#2BB2E1" stroke-width="1.5" stroke-linecap="round" stroke-linejoin="round"/>
<path d="M2.5 12.2529L4 12.7529" stroke="#2BB2E1" stroke-width="1.5" stroke-linecap="round" stroke-linejoin="round"/>
<path d="M21.5 12.2529L20 12.7529" stroke="#2BB2E1" stroke-width="1.5" stroke-linecap="round" stroke-linejoin="round"/>
<path d="M8 17.7529L8.24567 17.1388C8.61101 16.2254 8.79368 15.7687 9.17461 15.5108C9.55553 15.2529 10.0474 15.2529 11.0311 15.2529H12.9689C13.9526 15.2529 14.4445 15.2529 14.8254 15.5108C15.2063 15.7687 15.389 16.2254 15.7543 17.1388L16 17.7529" stroke="#2BB2E1" stroke-width="1.5" stroke-linecap="round" stroke-linejoin="round"/>
<path d="M7.00161 18.8152V19.6174C7.00167 20.4917 6.96338 20.6555 6.69942 20.9108C6.62218 20.9854 6.4652 21.093 6.35062 21.1498C6.14999 21.2491 6.0827 21.2529 4.52768 21.2529C2.93772 21.2529 2.90928 21.2512 2.66428 21.1405C2.5274 21.0787 2.35474 20.955 2.28058 20.8658C2.0188 20.5508 2.00635 20.4579 2.00391 18.7988L2.00458 15.2529" stroke="#2BB2E1" stroke-width="1.5" stroke-linecap="round"/>
<path d="M16.9984 18.8152V19.6174C16.9983 20.4917 17.0366 20.6555 17.3006 20.9108C17.3778 20.9854 17.5348 21.093 17.6494 21.1498C17.85 21.2491 17.9173 21.2529 19.4723 21.2529C21.0623 21.2529 21.0907 21.2512 21.3357 21.1405C21.4726 21.0787 21.6453 20.955 21.7194 20.8658C21.9812 20.5508 21.9936 20.4579 21.9961 18.7988L21.9954 15.2529" stroke="#2BB2E1" stroke-width="1.5" stroke-linecap="round"/>
<path d="M20 9.25293L21.5 8.75293" stroke="#2BB2E1" stroke-width="1.5" stroke-linecap="round" stroke-linejoin="round"/>
<path d="M4 9.25293L2.5 8.75293" stroke="#2BB2E1" stroke-width="1.5" stroke-linecap="round" stroke-linejoin="round"/>
</svg>
