<svg width="24" height="25" viewBox="0 0 24 25" fill="none" xmlns="http://www.w3.org/2000/svg">
<path d="M12 17.2529C10.3264 17.2529 8.86971 18.518 8.11766 20.3841C7.75846 21.2754 8.27389 22.2529 8.95877 22.2529H15.0412C15.7261 22.2529 16.2415 21.2754 15.8823 20.3841C15.1303 18.518 13.6736 17.2529 12 17.2529Z" stroke="#2BB2E1" stroke-width="1.5" stroke-linecap="round"/>
<path d="M18.5 5.25293H19.7022C20.9031 5.25293 21.5035 5.25293 21.8168 5.63029C22.13 6.00765 21.9998 6.57406 21.7393 7.70688L21.3485 9.406C20.7609 11.9615 18.6109 13.8617 16 14.2529" stroke="#2BB2E1" stroke-width="1.5" stroke-linecap="round" stroke-linejoin="round"/>
<path d="M5.5 5.25293H4.29779C3.09692 5.25293 2.49649 5.25293 2.18324 5.63029C1.86999 6.00765 2.00024 6.57406 2.26075 7.70688L2.65148 9.406C3.23914 11.9615 5.38912 13.8617 8 14.2529" stroke="#2BB2E1" stroke-width="1.5" stroke-linecap="round" stroke-linejoin="round"/>
<path d="M12 17.2529C15.0208 17.2529 17.565 12.5908 18.3297 6.24382C18.5412 4.48851 18.647 3.61086 18.0868 2.93189C17.5267 2.25293 16.6223 2.25293 14.8134 2.25293L9.18658 2.25293C7.37775 2.25293 6.47333 2.25293 5.91317 2.93189C5.35301 3.61086 5.45875 4.48851 5.67025 6.24382C6.435 12.5908 8.97923 17.2529 12 17.2529Z" stroke="#2BB2E1" stroke-width="1.5" stroke-linecap="round"/>
</svg>
