<svg width="20" height="20" viewBox="0 0 20 20" fill="none" xmlns="http://www.w3.org/2000/svg">
<path d="M16.25 4.5835L15.7336 12.9377C15.6016 15.0722 15.5356 16.1394 15.0006 16.9067C14.7361 17.2861 14.3955 17.6062 14.0006 17.8468C13.2018 18.3335 12.1325 18.3335 9.99395 18.3335C7.8526 18.3335 6.78192 18.3335 5.98254 17.8459C5.58733 17.6049 5.24666 17.2842 4.98224 16.9042C4.4474 16.1357 4.38288 15.0669 4.25384 12.9295L3.75 4.5835" stroke="#EA001B" stroke-width="1.2" stroke-linecap="round"/>
<path d="M2.5 4.58341H17.5M13.3798 4.58341L12.8109 3.40985C12.433 2.6303 12.244 2.24052 11.9181 1.99742C11.8458 1.9435 11.7692 1.89553 11.6892 1.854C11.3283 1.66675 10.8951 1.66675 10.0288 1.66675C9.14069 1.66675 8.69665 1.66675 8.32974 1.86185C8.24842 1.90509 8.17082 1.95499 8.09774 2.01105C7.76803 2.264 7.58386 2.66804 7.2155 3.47613L6.71077 4.58341" stroke="#EA001B" stroke-width="1.2" stroke-linecap="round"/>
</svg>
