<svg width="24" height="25" viewBox="0 0 24 25" fill="none" xmlns="http://www.w3.org/2000/svg">
<path d="M22 9.37895C21.9331 7.83687 21.7456 6.83298 21.2203 6.03884C20.9181 5.58196 20.5428 5.18459 20.1112 4.86468C18.9447 4 17.299 4 14.0078 4H9.99305C6.70178 4 5.05614 4 3.88962 4.86468C3.45805 5.18459 3.08267 5.58196 2.78047 6.03884C2.25526 6.83289 2.06776 7.83665 2.00083 9.37843C1.98938 9.64208 2.21648 9.84375 2.46531 9.84375C3.85109 9.84375 4.97449 11.033 4.97449 12.5C4.97449 13.967 3.85109 15.1562 2.46531 15.1562C2.21648 15.1562 1.98938 15.3579 2.00083 15.6216C2.06776 17.1634 2.25526 18.1671 2.78047 18.9612C3.08267 19.418 3.45805 19.8154 3.88962 20.1353C5.05614 21 6.70178 21 9.99306 21H14.0078C17.299 21 18.9447 21 20.1112 20.1353C20.5428 19.8154 20.9181 19.418 21.2203 18.9612C21.7456 18.167 21.9331 17.1631 22 15.6211V9.37895Z" stroke="#DDDD01" stroke-width="1.5" stroke-linejoin="round"/>
<path d="M13 12.5L17 12.5" stroke="#DDDD01" stroke-width="1.5" stroke-linecap="round" stroke-linejoin="round"/>
<path d="M9 16.5L17 16.5" stroke="#DDDD01" stroke-width="1.5" stroke-linecap="round" stroke-linejoin="round"/>
</svg>
