<svg width="20" height="21" viewBox="0 0 20 21" fill="none" xmlns="http://www.w3.org/2000/svg">
<path d="M5.83337 6.75L8.28505 8.19953C9.71439 9.0446 10.2857 9.0446 11.715 8.19953L14.1667 6.75" stroke="#000A1E" stroke-width="1.2" stroke-linecap="round" stroke-linejoin="round"/>
<path d="M8.75002 16.7499C8.36143 16.7448 7.97237 16.7374 7.58238 16.7276C4.95863 16.6616 3.64676 16.6287 2.70415 15.6819C1.76154 14.7352 1.7343 13.4571 1.67983 10.9011C1.66231 10.0792 1.66231 9.26215 1.67982 8.44027C1.7343 5.88419 1.76154 4.60615 2.70415 3.65941C3.64676 2.71267 4.95863 2.67969 7.58237 2.61374C9.19944 2.57309 10.8006 2.57309 12.4177 2.61374C15.0414 2.6797 16.3533 2.71269 17.2959 3.65942C18.2385 4.60616 18.2657 5.8842 18.3202 8.44029C18.3283 8.81868 18.3326 8.997 18.3333 9.24992" stroke="#000A1E" stroke-width="1.2" stroke-linecap="round" stroke-linejoin="round"/>
<path d="M15.8334 14.6665C15.8334 15.3569 15.2737 15.9165 14.5834 15.9165C13.893 15.9165 13.3334 15.3569 13.3334 14.6665C13.3334 13.9761 13.893 13.4165 14.5834 13.4165C15.2737 13.4165 15.8334 13.9761 15.8334 14.6665ZM15.8334 14.6665V15.0832C15.8334 15.7735 16.393 16.3332 17.0834 16.3332C17.7737 16.3332 18.3334 15.7735 18.3334 15.0832V14.6665C18.3334 12.5954 16.6544 10.9165 14.5834 10.9165C12.5123 10.9165 10.8334 12.5954 10.8334 14.6665C10.8334 16.7376 12.5123 18.4165 14.5834 18.4165" stroke="#000A1E" stroke-width="1.2" stroke-linecap="round" stroke-linejoin="round"/>
</svg>
