<svg width="19" height="19" viewBox="0 0 19 19" fill="none" xmlns="http://www.w3.org/2000/svg">
<path d="M2 6.5C2 6.5 5.35786 2.75 9.5 2.75C13.6421 2.75 17 6.5 17 6.5" stroke="#666666" stroke-width="1.2" stroke-linecap="round"/>
<path d="M16.658 10.2837C16.886 10.6035 17 10.7633 17 11C17 11.2367 16.886 11.3965 16.658 11.7163C15.6334 13.1529 13.0169 16.25 9.5 16.25C5.98308 16.25 3.36657 13.1529 2.34203 11.7163C2.11401 11.3965 2 11.2367 2 11C2 10.7633 2.11401 10.6035 2.34203 10.2837C3.36657 8.84708 5.98308 5.75 9.5 5.75C13.0169 5.75 15.6334 8.84708 16.658 10.2837Z" stroke="#666666" stroke-width="1.2"/>
<path d="M11.75 11C11.75 9.75736 10.7426 8.75 9.5 8.75C8.25736 8.75 7.25 9.75736 7.25 11C7.25 12.2426 8.25736 13.25 9.5 13.25C10.7426 13.25 11.75 12.2426 11.75 11Z" stroke="#666666" stroke-width="1.2"/>
</svg>
