<svg width="16" height="17" viewBox="0 0 16 17" fill="none" xmlns="http://www.w3.org/2000/svg">
<path d="M2.66602 6.63614C2.66602 5.25403 2.66602 4.56298 2.90443 4.00173C3.10357 3.53292 3.41788 3.13052 3.81395 2.83731C4.28811 2.48628 4.92444 2.36267 6.19711 2.11543C7.52051 1.85833 8.1822 1.72979 8.69716 1.93464C9.12495 2.10481 9.48538 2.42621 9.7186 2.84547C9.99935 3.35017 9.99935 4.06877 9.99935 5.50596V11.4939C9.99935 12.9311 9.99935 13.6497 9.7186 14.1544C9.48538 14.5736 9.12495 14.895 8.69716 15.0652C8.1822 15.27 7.52051 15.1415 6.19711 14.8844C4.92444 14.6372 4.28811 14.5136 3.81395 14.1625C3.41788 13.8693 3.10357 13.4669 2.90443 12.9981C2.66602 12.4369 2.66602 11.7458 2.66602 10.3637V6.63614Z" stroke="white" stroke-width="0.8"/>
<path d="M10 13.6987C10.9649 13.799 12.2666 14.1076 12.9584 13.2255C13.3333 12.7473 13.3333 12.0189 13.3333 10.5621V6.4376C13.3333 4.98076 13.3333 4.25234 12.9584 3.77419C12.2666 2.89211 10.9649 3.20069 10 3.30102" stroke="white" stroke-width="0.8"/>
<path d="M8 9.16658L8 7.83325" stroke="white" stroke-width="0.8" stroke-linecap="round" stroke-linejoin="round"/>
<path d="M12.666 13.6509L14.666 13.6509" stroke="white" stroke-width="0.8" stroke-linecap="round" stroke-linejoin="round"/>
<path d="M1.33301 13.8333H3.33301" stroke="white" stroke-width="0.8" stroke-linecap="round" stroke-linejoin="round"/>
</svg>
