<svg width="24" height="25" viewBox="0 0 24 25" fill="none" xmlns="http://www.w3.org/2000/svg">
<g clip-path="url(#clip0_295_2746)">
<path d="M12 2.41569C15.206 2.41569 15.5824 2.42998 16.8496 2.48715C18.0215 2.53955 18.655 2.73487 19.079 2.9016C19.6411 3.12073 20.0413 3.37798 20.4605 3.79719C20.8797 4.21641 21.1417 4.61657 21.3561 5.17869C21.5181 5.60267 21.7182 6.23626 21.7706 7.40815C21.8277 8.67532 21.842 9.05166 21.842 12.2577C21.842 15.4637 21.8277 15.8401 21.7706 17.1072C21.7182 18.2791 21.5228 18.9127 21.3561 19.3367C21.137 19.8988 20.8797 20.299 20.4605 20.7182C20.0413 21.1374 19.6411 21.3994 19.079 21.6138C18.655 21.7758 18.0215 21.9758 16.8496 22.0282C15.5824 22.0854 15.206 22.0997 12 22.0997C8.79397 22.0997 8.41763 22.0854 7.15046 22.0282C5.97857 21.9758 5.34498 21.7805 4.921 21.6138C4.35888 21.3947 3.95872 21.1374 3.5395 20.7182C3.12029 20.299 2.85828 19.8988 2.64391 19.3367C2.48194 18.9127 2.28186 18.2791 2.22946 17.1072C2.17229 15.8401 2.158 15.4637 2.158 12.2577C2.158 9.05166 2.17229 8.67532 2.22946 7.40815C2.28186 6.23626 2.47718 5.60267 2.64391 5.17869C2.86304 4.61657 3.12029 4.21641 3.5395 3.79719C3.95872 3.37798 4.35888 3.11597 4.921 2.9016C5.34498 2.73963 5.97857 2.53955 7.15046 2.48715C8.41763 2.42522 8.79874 2.41569 12 2.41569ZM12 0.25293C8.74157 0.25293 8.33188 0.267221 7.05042 0.324387C5.77372 0.381552 4.90195 0.586395 4.13974 0.881751C3.34895 1.18663 2.68202 1.60108 2.01509 2.26801C1.34816 2.93495 0.938468 3.60664 0.628821 4.39267C0.333466 5.15487 0.128623 6.02665 0.071457 7.30811C0.0142914 8.58481 0 8.99449 0 12.2529C0 15.5114 0.0142914 15.9211 0.071457 17.2025C0.128623 18.4792 0.333466 19.351 0.628821 20.118C0.933705 20.9087 1.34816 21.5757 2.01509 22.2426C2.68202 22.9095 3.35371 23.3192 4.13974 23.6289C4.90195 23.9242 5.77372 24.1291 7.05519 24.1862C8.33665 24.2434 8.74157 24.2577 12.0048 24.2577C15.268 24.2577 15.6729 24.2434 16.9544 24.1862C18.2311 24.1291 19.1028 23.9242 19.8698 23.6289C20.6606 23.324 21.3275 22.9095 21.9945 22.2426C22.6614 21.5757 23.0711 20.904 23.3807 20.118C23.6761 19.3557 23.8809 18.484 23.9381 17.2025C23.9953 15.9211 24.0095 15.5161 24.0095 12.2529C24.0095 8.98973 23.9953 8.58481 23.9381 7.30335C23.8809 6.02665 23.6761 5.15487 23.3807 4.3879C23.0758 3.59711 22.6614 2.93018 21.9945 2.26325C21.3275 1.59632 20.6558 1.18663 19.8698 0.876987C19.1076 0.581632 18.2358 0.376788 16.9544 0.319623C15.6681 0.267221 15.2584 0.25293 12 0.25293Z" fill="white"/>
<path d="M12 2.41569C15.206 2.41569 15.5824 2.42998 16.8496 2.48715C18.0215 2.53955 18.655 2.73487 19.079 2.9016C19.6411 3.12073 20.0413 3.37798 20.4605 3.79719C20.8797 4.21641 21.1417 4.61657 21.3561 5.17869C21.5181 5.60267 21.7182 6.23626 21.7706 7.40815C21.8277 8.67532 21.842 9.05166 21.842 12.2577C21.842 15.4637 21.8277 15.8401 21.7706 17.1072C21.7182 18.2791 21.5228 18.9127 21.3561 19.3367C21.137 19.8988 20.8797 20.299 20.4605 20.7182C20.0413 21.1374 19.6411 21.3994 19.079 21.6138C18.655 21.7758 18.0215 21.9758 16.8496 22.0282C15.5824 22.0854 15.206 22.0997 12 22.0997C8.79397 22.0997 8.41763 22.0854 7.15046 22.0282C5.97857 21.9758 5.34498 21.7805 4.921 21.6138C4.35888 21.3947 3.95872 21.1374 3.5395 20.7182C3.12029 20.299 2.85828 19.8988 2.64391 19.3367C2.48194 18.9127 2.28186 18.2791 2.22946 17.1072C2.17229 15.8401 2.158 15.4637 2.158 12.2577C2.158 9.05166 2.17229 8.67532 2.22946 7.40815C2.28186 6.23626 2.47718 5.60267 2.64391 5.17869C2.86304 4.61657 3.12029 4.21641 3.5395 3.79719C3.95872 3.37798 4.35888 3.11597 4.921 2.9016C5.34498 2.73963 5.97857 2.53955 7.15046 2.48715C8.41763 2.42522 8.79874 2.41569 12 2.41569Z" fill="white"/>
<path d="M12 6.09334C8.59869 6.09334 5.83569 8.85158 5.83569 12.2577C5.83569 15.6638 8.59393 18.422 12 18.422C15.4062 18.422 18.1644 15.6638 18.1644 12.2577C18.1644 8.85158 15.4062 6.09334 12 6.09334ZM12 16.2545C9.78964 16.2545 7.99846 14.4633 7.99846 12.2529C7.99846 10.0425 9.78964 8.25134 12 8.25134C14.2104 8.25134 16.0016 10.0425 16.0016 12.2529C16.0016 14.4633 14.2104 16.2545 12 16.2545Z" fill="#2BB2E1"/>
<path d="M18.4074 7.28429C19.202 7.28429 19.8461 6.64018 19.8461 5.84563C19.8461 5.05107 19.202 4.40696 18.4074 4.40696C17.6129 4.40696 16.9688 5.05107 16.9688 5.84563C16.9688 6.64018 17.6129 7.28429 18.4074 7.28429Z" fill="#2BB2E1"/>
</g>
<defs>
<clipPath id="clip0_295_2746">
<rect width="24" height="24" fill="white" transform="translate(0 0.25293)"/>
</clipPath>
</defs>
</svg>
