<svg width="20" height="21" viewBox="0 0 20 21" fill="none" xmlns="http://www.w3.org/2000/svg">
<path d="M5 16.9199L18.3333 16.9199" stroke="#666666" stroke-width="1.2" stroke-linecap="round" stroke-linejoin="round"/>
<path d="M2.3475 4.88109L1.76743 4.72772L2.3475 4.88109ZM2.10184 5.81019L2.68191 5.96355L2.10184 5.81019ZM12.0108 11.977L11.8536 12.556L12.0108 11.977ZM16.427 13.1762L16.2697 13.7552L16.2708 13.7555L16.427 13.1762ZM4.52186 9.94339L4.36462 10.5224L4.52186 9.94339ZM7.12775 10.651L7.28498 10.072L7.12775 10.651ZM2.8414 3.73279L3.19628 4.21658L3.19628 4.21658L2.8414 3.73279ZM4.26417 3.79032L4.10694 4.36935L4.26417 3.79032ZM5.04631 4.09805L5.44716 3.6516L5.44716 3.6516L5.04631 4.09805ZM11.3441 12.0844L11.6744 12.5852L11.3441 12.0844ZM9.40056 13.3662L9.69732 13.8876C9.70874 13.8812 9.71993 13.8743 9.7309 13.8671L9.40056 13.3662ZM8.1162 13.5265L7.95897 14.1055L8.1162 13.5265ZM6.18038 13.0008L6.33762 12.4218L6.18038 13.0008ZM5.96907 12.3146L6.4168 12.714H6.4168L5.96907 12.3146ZM7.20782 10.926L6.76009 10.5266L6.76009 10.5266L7.20782 10.926ZM12.418 7.3244L12.3676 7.92228H12.3676L12.418 7.3244ZM7.07015 6.91055L7.11643 6.31234L7.07015 6.91055ZM5.52422 5.56127L6.1112 5.43693L6.1112 5.43693L5.52422 5.56127ZM17.4958 12.2933L18.0927 12.2321L18.0922 12.2274L17.4958 12.2933ZM1.76743 4.72772L1.52178 5.65682L2.68191 5.96355L2.92756 5.03446L1.76743 4.72772ZM11.8536 12.556L16.2697 13.7552L16.5842 12.5972L12.168 11.398L11.8536 12.556ZM4.36462 10.5224L6.97051 11.23L7.28498 10.072L4.67909 9.36436L4.36462 10.5224ZM2.92756 5.03446C3.01722 4.69537 3.07205 4.49175 3.12869 4.34782C3.15479 4.28151 3.17422 4.24712 3.18583 4.22994C3.1912 4.22201 3.19444 4.21843 3.19538 4.21744C3.19618 4.2166 3.19627 4.21659 3.19628 4.21658L2.48651 3.24899C2.24001 3.42981 2.10517 3.67175 2.01205 3.90837C1.92373 4.13278 1.84966 4.41672 1.76743 4.72772L2.92756 5.03446ZM4.10694 4.36935C4.32685 4.42907 4.45483 4.46437 4.5486 4.49884C4.59122 4.51451 4.61518 4.526 4.62862 4.53343C4.64045 4.53997 4.6443 4.54346 4.64546 4.5445L5.44716 3.6516C5.29421 3.51427 5.12719 3.43303 4.96268 3.37255C4.80842 3.31584 4.62144 3.26561 4.42141 3.21129L4.10694 4.36935ZM1.52178 5.65682C1.32404 6.40469 1.15889 7.02424 1.09595 7.53201C1.03075 8.05798 1.06226 8.55101 1.33213 9.01193L2.36769 8.40561C2.28315 8.26123 2.23852 8.0694 2.28683 7.67962C2.33741 7.27164 2.47542 6.74454 2.68191 5.96355L1.52178 5.65682ZM4.67909 9.36436C3.89044 9.1502 3.35674 9.00399 2.97143 8.84241C2.60163 8.68734 2.45294 8.55121 2.36769 8.40561L1.33213 9.01193C1.60129 9.47163 2.01605 9.74302 2.50737 9.94905C2.98318 10.1486 3.60824 10.317 4.36462 10.5224L4.67909 9.36436ZM11.0137 11.5835L9.07021 12.8653L9.7309 13.8671L11.6744 12.5852L11.0137 11.5835ZM8.27344 12.9474L6.33762 12.4218L6.02315 13.5798L7.95897 14.1055L8.27344 12.9474ZM6.4168 12.714L7.65556 11.3254L6.76009 10.5266L5.52133 11.9152L6.4168 12.714ZM6.33762 12.4218C6.4485 12.4519 6.5164 12.6024 6.4168 12.714L5.52133 11.9152C5.00679 12.492 5.30315 13.3843 6.02315 13.5798L6.33762 12.4218ZM9.10379 12.8447C8.85531 12.9861 8.5567 13.0244 8.27344 12.9474L7.95897 14.1055C8.54495 14.2646 9.17034 14.1876 9.69732 13.8876L9.10379 12.8447ZM12.4684 6.72652C10.6845 6.57616 8.89316 6.44979 7.11643 6.31234L7.02387 7.50876C8.81211 7.6471 10.5885 7.77232 12.3676 7.92228L12.4684 6.72652ZM4.42141 3.21129C4.26762 3.16953 3.92748 3.05443 3.63276 3.01027C3.31305 2.96237 2.8769 2.96263 2.48651 3.24899L3.19628 4.21658C3.21841 4.20035 3.27548 4.17013 3.45494 4.19702C3.65939 4.22766 3.82439 4.29263 4.10694 4.36935L4.42141 3.21129ZM6.1112 5.43693C6.09101 5.34164 6.07458 5.23305 6.05224 5.09141C6.03119 4.958 6.00569 4.80118 5.9694 4.64444C5.90102 4.34907 5.77192 3.94319 5.44716 3.6516L4.64546 4.5445C4.68347 4.57863 4.74473 4.67497 4.80032 4.91509C4.82602 5.02609 4.8459 5.14533 4.86689 5.2784C4.88659 5.40322 4.90884 5.55152 4.93725 5.68561L6.1112 5.43693ZM7.11643 6.31234C6.58871 6.27151 6.44174 6.20039 6.37735 6.14479C6.31519 6.09112 6.22145 5.9574 6.1112 5.43693L4.93725 5.6856C5.04933 6.21474 5.20145 6.71489 5.59311 7.05307C5.98255 7.38932 6.49737 7.46803 7.02387 7.50876L7.11643 6.31234ZM18.0922 12.2274C17.7676 9.28903 15.3777 6.97172 12.4684 6.72652L12.3676 7.92228C14.7042 8.11921 16.6377 9.98958 16.8994 12.3592L18.0922 12.2274ZM16.2708 13.7555C17.1881 14.0027 18.2014 13.2921 18.0927 12.2321L16.8989 12.3546C16.9071 12.4345 16.8773 12.4987 16.8173 12.5467C16.7521 12.5988 16.6648 12.6189 16.5831 12.5969L16.2708 13.7555ZM6.97051 11.23C6.65221 11.1436 6.55167 10.7602 6.76009 10.5266L7.65555 11.3254C8.03022 10.9054 7.84273 10.2234 7.28498 10.072L6.97051 11.23ZM12.168 11.398C11.774 11.291 11.3542 11.359 11.0137 11.5835L11.6744 12.5852C11.7283 12.5497 11.7932 12.5396 11.8536 12.556L12.168 11.398Z" fill="#666666"/>
</svg>
