<svg width="20" height="21" viewBox="0 0 20 21" fill="none" xmlns="http://www.w3.org/2000/svg">
<path d="M12.9163 9.41972C12.9163 11.0305 11.6105 12.3364 9.99967 12.3364C8.38884 12.3364 7.08301 11.0305 7.08301 9.41972C7.08301 7.80889 8.38884 6.50305 9.99967 6.50305C11.6105 6.50305 12.9163 7.80889 12.9163 9.41972Z" stroke="#666666" stroke-width="1.2"/>
<path d="M10 1.91956C14.0588 1.91956 17.5 5.28037 17.5 9.35769C17.5 13.5 14.0028 16.4068 10.7725 18.3835C10.5371 18.5163 10.2709 18.5862 10 18.5862C9.72913 18.5862 9.46291 18.5163 9.2275 18.3835C6.00325 16.3875 2.5 13.5143 2.5 9.35769C2.5 5.28037 5.9412 1.91956 10 1.91956Z" stroke="#666666" stroke-width="1.2"/>
</svg>
