<svg width="20" height="21" viewBox="0 0 20 21" fill="none" xmlns="http://www.w3.org/2000/svg">
<path d="M8.33333 9.04175C8.67851 9.04175 8.95833 9.32157 8.95833 9.66675V15.0834C8.95833 15.4286 8.67851 15.7084 8.33333 15.7084C7.98816 15.7084 7.70833 15.4286 7.70833 15.0834V9.66675C7.70833 9.32157 7.98816 9.04175 8.33333 9.04175Z" fill="#000A1E"/>
<path d="M12.2917 9.66675C12.2917 9.32157 12.0118 9.04175 11.6667 9.04175C11.3215 9.04175 11.0417 9.32157 11.0417 9.66675V15.0834C11.0417 15.4286 11.3215 15.7084 11.6667 15.7084C12.0118 15.7084 12.2917 15.4286 12.2917 15.0834V9.66675Z" fill="#000A1E"/>
<path fill-rule="evenodd" clip-rule="evenodd" d="M6.875 2.16675C6.875 1.82157 7.15482 1.54175 7.5 1.54175H12.5C12.8452 1.54175 13.125 1.82157 13.125 2.16675C13.125 2.51193 12.8452 2.79175 12.5 2.79175H12.2917V6.5557C12.6281 6.56692 12.9314 6.58714 13.2026 6.6236C13.8392 6.70919 14.3912 6.89442 14.8317 7.335C15.2723 7.77558 15.4576 8.32753 15.5432 8.96415C15.625 9.57321 15.625 10.3446 15.625 11.2887V13.4615C15.625 14.4055 15.625 15.177 15.5432 15.786C15.4576 16.4226 15.2723 16.9746 14.8317 17.4152C14.4714 17.7755 14.0365 17.9651 13.5417 18.069V18.8334C13.5417 19.1786 13.2618 19.4584 12.9167 19.4584H12.5C12.1548 19.4584 11.875 19.1786 11.875 18.8334V18.204C11.567 18.2084 11.2348 18.2084 10.8781 18.2084H9.12193C8.76515 18.2084 8.43303 18.2084 8.125 18.204V18.8334C8.125 19.1786 7.84518 19.4584 7.5 19.4584H7.08333C6.73816 19.4584 6.45833 19.1786 6.45833 18.8334V18.069C5.96353 17.9651 5.52863 17.7755 5.16825 17.4152C4.72768 16.9746 4.54244 16.4226 4.45685 15.786C4.37497 15.177 4.37498 14.4055 4.375 13.4615V11.2887C4.37498 10.3447 4.37497 9.5732 4.45685 8.96415C4.54244 8.32753 4.72768 7.77558 5.16825 7.335C5.60883 6.89442 6.16078 6.70919 6.79741 6.6236C7.06856 6.58714 7.3719 6.56692 7.70833 6.5557V2.79175H7.5C7.15482 2.79175 6.875 2.51193 6.875 2.16675ZM8.95833 6.54176H11.0417V2.79175H8.95833V6.54176ZM6.05214 8.21888C6.22175 8.04927 6.46595 7.92941 6.96397 7.86245C7.47996 7.79308 8.16691 7.79175 9.16667 7.79175H10.8333C11.8331 7.79175 12.52 7.79308 13.036 7.86245C13.5341 7.92941 13.7782 8.04927 13.9479 8.21888C14.1175 8.3885 14.2373 8.6327 14.3043 9.13071C14.3737 9.64671 14.375 10.3337 14.375 11.3334V13.4167C14.375 14.4165 14.3737 15.1035 14.3043 15.6195C14.2373 16.1175 14.1175 16.3617 13.9479 16.5313C13.7782 16.7009 13.5341 16.8208 13.036 16.8877C12.52 16.9571 11.8331 16.9584 10.8333 16.9584H9.16667C8.16691 16.9584 7.47996 16.9571 6.96397 16.8877C6.46595 16.8208 6.22175 16.7009 6.05214 16.5313C5.88252 16.3617 5.76266 16.1175 5.6957 15.6195C5.62633 15.1035 5.625 14.4165 5.625 13.4167V11.3334C5.625 10.3337 5.62633 9.64671 5.6957 9.13071C5.76266 8.6327 5.88252 8.3885 6.05214 8.21888Z" fill="#000A1E"/>
</svg>
