<svg width="18" height="19" viewBox="0 0 18 19" fill="none" xmlns="http://www.w3.org/2000/svg">
<path d="M3.75075 5.50293L2.83665 6.11233C2.18136 6.54919 1.85371 6.76762 1.67615 7.10074C1.49859 7.43386 1.49991 7.82535 1.50254 8.60835C1.50571 9.55107 1.51447 10.5116 1.53873 11.4835C1.59629 13.7895 1.62507 14.9424 2.47287 15.7903C3.32067 16.6381 4.48921 16.6673 6.8263 16.7257C8.28024 16.762 9.72128 16.762 11.1752 16.7257C13.5123 16.6673 14.6809 16.6381 15.5287 15.7903C16.3765 14.9424 16.4052 13.7895 16.4628 11.4835C16.487 10.5116 16.4958 9.55107 16.499 8.60835C16.5016 7.82535 16.5029 7.43385 16.3253 7.10074C16.1478 6.76762 15.8201 6.54919 15.1648 6.11233L14.2507 5.50293" stroke="#2BB2E1" stroke-linejoin="round"/>
<path d="M1.5 7.75293L6.68477 10.8638C7.81278 11.5406 8.37679 11.879 9 11.879C9.62321 11.879 10.1872 11.5406 11.3152 10.8638L16.5 7.75293" stroke="#2BB2E1" stroke-linejoin="round"/>
<path d="M3.75 9.25293L3.75 4.75293C3.75 3.33872 3.75 2.63161 4.18934 2.19227C4.62868 1.75293 5.33579 1.75293 6.75 1.75293L11.25 1.75293C12.6642 1.75293 13.3713 1.75293 13.8107 2.19227C14.25 2.63161 14.25 3.33872 14.25 4.75293L14.25 9.25293" stroke="#2BB2E1"/>
<path d="M7.5 7.75293L10.5 7.75293M7.5 4.75293L10.5 4.75293" stroke="#2BB2E1" stroke-linecap="round" stroke-linejoin="round"/>
</svg>
