<svg width="64" height="33" viewBox="0 0 64 33" fill="none" xmlns="http://www.w3.org/2000/svg">
<g clip-path="url(#clip0_295_2766)">
<g clip-path="url(#clip1_295_2766)">
<path d="M22 2.25293C29.732 2.25293 36 8.52094 36 16.2529C36 23.9849 29.732 30.2529 22 30.2529C14.268 30.2529 8 23.9849 8 16.2529C8 8.52094 14.268 2.25293 22 2.25293Z" fill="#EA001B"/>
<path d="M42 2.25293C49.732 2.25293 56 8.52094 56 16.2529C56 23.9849 49.732 30.2529 42 30.2529C34.268 30.2529 28 23.9849 28 16.2529C28 8.52094 34.268 2.25293 42 2.25293Z" fill="#FFA200" fill-opacity="0.8"/>
</g>
</g>
<defs>
<clipPath id="clip0_295_2766">
<path d="M0 2.25293C0 1.14836 0.895431 0.25293 2 0.25293H62C63.1046 0.25293 64 1.14836 64 2.25293V30.2529C64 31.3575 63.1046 32.2529 62 32.2529H2C0.895431 32.2529 0 31.3575 0 30.2529V2.25293Z" fill="white"/>
</clipPath>
<clipPath id="clip1_295_2766">
<rect width="48" height="48" fill="white" transform="matrix(1 0 0 -1 8 40.2529)"/>
</clipPath>
</defs>
</svg>
