<svg width="21" height="21" viewBox="0 0 21 21" fill="none" xmlns="http://www.w3.org/2000/svg">
<path d="M15.0647 10.9197C15.071 10.9197 15.0772 10.9197 15.0834 10.9197C17.1545 10.9197 18.8334 12.5986 18.8334 14.6697C18.8334 16.7407 17.1545 18.4197 15.0834 18.4197H6.33341C4.03223 18.4197 2.16675 16.5542 2.16675 14.253C2.16675 12.0866 3.82007 10.3064 5.93377 10.1053M15.0647 10.9197C15.0771 10.7825 15.0834 10.6435 15.0834 10.503C15.0834 7.97171 13.0314 5.91968 10.5001 5.91968C8.10278 5.91968 6.13535 7.76019 5.93377 10.1053M15.0647 10.9197C14.9795 11.8651 14.6073 12.7277 14.0358 13.4197M5.93377 10.1053C6.0653 10.0927 6.19861 10.0863 6.33341 10.0863C7.2716 10.0863 8.13737 10.3964 8.83382 10.9197" stroke="#666666" stroke-width="1.2" stroke-linecap="round" stroke-linejoin="round"/>
<path d="M9.66675 5.52845C9.58849 5.12552 9.44408 4.72855 9.22941 4.35308C8.71618 3.4554 7.89677 2.84753 6.9813 2.5863C7.12277 3.73601 6.58746 4.91275 5.53141 5.52845C4.47536 6.14415 3.19853 6.02393 2.28328 5.32536C2.04957 6.25659 2.16118 7.27713 2.67441 8.1748C3.36847 9.38876 4.62246 10.0729 5.91675 10.0863" stroke="#666666" stroke-width="1.2" stroke-linejoin="round"/>
</svg>
