<svg width="16" height="17" viewBox="0 0 16 17" fill="none" xmlns="http://www.w3.org/2000/svg">
<path d="M10.3337 7.83333C10.3337 9.122 9.28899 10.1667 8.00033 10.1667C6.71166 10.1667 5.66699 9.122 5.66699 7.83333C5.66699 6.54467 6.71166 5.5 8.00033 5.5C9.28899 5.5 10.3337 6.54467 10.3337 7.83333Z" stroke="#F9F9F9"/>
<path d="M8 1.83325C11.247 1.83325 14 4.5219 14 7.78376C14 11.0976 11.2022 13.4231 8.618 15.0044C8.42967 15.1107 8.2167 15.1666 8 15.1666C7.7833 15.1666 7.57033 15.1107 7.382 15.0044C4.8026 13.4076 2 11.109 2 7.78376C2 4.5219 4.75296 1.83325 8 1.83325Z" stroke="#D9D9D9"/>
</svg>
