<svg width="12" height="13" viewBox="0 0 12 13" fill="none" xmlns="http://www.w3.org/2000/svg">
<path d="M5 5.25L2.63765 2.73781C2.42852 2.51223 2.46202 2.34746 2.70864 2.20481C3.17227 1.93663 3.53345 1.92935 4.02214 2.19754L6.4745 3.54336C6.64908 3.63917 6.82029 3.73628 7 3.78926" stroke="#000A1E" stroke-width="0.8" stroke-linecap="round" stroke-linejoin="round"/>
<path d="M6.25 7.33159L7.30514 10.7348C7.39131 11.0127 7.543 11.0631 7.77802 10.9284C8.21982 10.6751 8.39791 10.3825 8.40985 9.85533L8.46973 7.2099C8.47773 6.85655 8.47629 6.51074 8.75 6.25" stroke="#000A1E" stroke-width="0.8" stroke-linecap="round" stroke-linejoin="round"/>
<path d="M4.16423 5.99212L5.10768 5.30277L7.31588 3.69282L7.31705 3.69196L7.3271 3.68462C7.39806 3.63278 8.16077 3.07852 8.59593 2.88789C9.13826 2.65032 9.64345 2.76077 10.187 2.91256C10.4681 2.99108 10.6087 3.03033 10.7101 3.10357C10.871 3.21977 10.9756 3.39863 10.9972 3.59424C11.0107 3.71754 10.9749 3.85728 10.9033 4.13677L10.9033 4.13678C10.7647 4.67714 10.6091 5.16408 10.1294 5.50875C9.74442 5.78536 8.87634 6.16011 8.79568 6.19469L8.78439 6.19952L8.78297 6.20013L6.26585 7.28221L5.18912 7.74377L5.18911 7.74378C4.7987 7.91113 4.6035 7.99481 4.4707 8.15008C4.15966 8.51375 4.11574 9.17187 3.99966 9.62467C3.9355 9.8749 3.58374 10.3085 3.27029 10.2434C3.07678 10.2032 3.07306 9.96099 3.04898 9.80653L2.8171 8.31943C2.76165 7.96379 2.75739 7.95652 2.47299 7.73131L1.28378 6.78961C1.16026 6.6918 0.949515 6.5675 1.011 6.38204C1.1106 6.08163 1.66704 5.99784 1.91874 6.06814C2.37417 6.19533 2.97373 6.48686 3.44842 6.4029C3.6511 6.36705 3.82214 6.24207 4.16422 5.99212L4.16423 5.99212Z" stroke="#000A1E" stroke-width="0.8" stroke-linecap="round" stroke-linejoin="round"/>
</svg>
