<svg width="24" height="25" viewBox="0 0 24 25" fill="none" xmlns="http://www.w3.org/2000/svg">
<path d="M10 10L5.27531 4.97562C4.85705 4.52447 4.92403 4.19493 5.41729 3.90962C6.34454 3.37327 7.06689 3.3587 8.04428 3.89508L12.949 6.58672C13.2982 6.77833 13.6406 6.97256 14 7.07852" stroke="#DDDD01" stroke-width="1.4" stroke-linecap="round" stroke-linejoin="round"/>
<path d="M12.5 14.1632L14.6103 20.9696C14.7826 21.5255 15.086 21.6262 15.556 21.3567C16.4396 20.8501 16.7958 20.265 16.8197 19.2107L16.9395 13.9198C16.9555 13.2131 16.9526 12.5215 17.5 12" stroke="#DDDD01" stroke-width="1.4" stroke-linecap="round" stroke-linejoin="round"/>
<path d="M8.32846 11.4842L10.2154 10.1055L14.6377 6.88133L14.6416 6.87848L14.6491 6.87298C14.7535 6.79658 16.3094 5.66235 17.1919 5.27578C18.2765 4.80064 19.2869 5.02153 20.3739 5.32512C20.9362 5.48215 21.2173 5.56066 21.4202 5.70714C21.742 5.93955 21.9513 6.29725 21.9943 6.68849C22.0215 6.93507 21.9498 7.21456 21.8065 7.77353L21.8065 7.77355C21.5294 8.85428 21.2181 9.82816 20.2588 10.5175C19.4782 11.0784 17.7045 11.841 17.5856 11.8918L17.5771 11.8955L17.5726 11.8974L12.5317 14.0644L10.3782 14.9875L10.3782 14.9876C9.5974 15.3223 9.207 15.4896 8.94139 15.8002C8.31933 16.5275 8.23148 17.8437 7.99931 18.7493C7.87101 19.2498 7.16748 20.117 6.54058 19.9868C6.15355 19.9065 6.14613 19.422 6.09796 19.1131L5.6342 16.1389C5.5233 15.4276 5.51479 15.413 4.94599 14.9626L2.56757 13.0792C2.32053 12.8836 1.89903 12.635 2.022 12.2641C2.22119 11.6633 3.33408 11.4957 3.83747 11.6363C4.74834 11.8907 5.94747 12.4737 6.89684 12.3058C7.3022 12.2341 7.64428 11.9841 8.32844 11.4842L8.32846 11.4842Z" fill="#DDDD01" stroke="#DDDD01" stroke-width="1.4" stroke-linecap="round" stroke-linejoin="round"/>
</svg>
