<svg width="24" height="25" viewBox="0 0 24 25" fill="none" xmlns="http://www.w3.org/2000/svg">
<path d="M10 9.75293L5.27531 4.72855C4.85705 4.2774 4.92403 3.94786 5.41729 3.66255C6.34454 3.1262 7.06689 3.11163 8.04428 3.64801L12.949 6.33965C13.2982 6.53126 13.6406 6.72549 14 6.83145" stroke="#DDDD01" stroke-width="1.4" stroke-linecap="round" stroke-linejoin="round"/>
<path d="M12.5 13.9161L14.6103 20.7226C14.7826 21.2784 15.086 21.3792 15.556 21.1097C16.4396 20.603 16.7958 20.0179 16.8197 18.9636L16.9395 13.6727C16.9555 12.966 16.9526 12.2744 17.5 11.7529" stroke="#DDDD01" stroke-width="1.4" stroke-linecap="round" stroke-linejoin="round"/>
<path d="M8.32846 11.2372L10.2154 9.85847L14.6377 6.63426L14.6416 6.63141L14.6491 6.62591C14.7535 6.54951 16.3094 5.41528 17.1919 5.02871C18.2765 4.55357 19.2869 4.77446 20.3739 5.07805C20.9362 5.23508 21.2173 5.31359 21.4202 5.46007C21.742 5.69248 21.9513 6.05018 21.9943 6.44141C22.0215 6.688 21.9498 6.96749 21.8065 7.52646L21.8065 7.52648C21.5294 8.60721 21.2181 9.58109 20.2588 10.2704C19.4782 10.8313 17.7045 11.5939 17.5856 11.6448L17.5771 11.6484L17.5726 11.6503L12.5317 13.8174L10.3782 14.7405L10.3782 14.7405C9.5974 15.0752 9.207 15.2425 8.94139 15.5531C8.31933 16.2804 8.23148 17.5967 7.99931 18.5023C7.87101 19.0027 7.16748 19.87 6.54058 19.7398C6.15355 19.6594 6.14613 19.1749 6.09796 18.866L5.6342 15.8918C5.5233 15.1805 5.51479 15.166 4.94599 14.7156L2.56757 12.8322C2.32053 12.6365 1.89903 12.3879 2.022 12.017C2.22119 11.4162 3.33408 11.2486 3.83747 11.3892C4.74834 11.6436 5.94747 12.2266 6.89684 12.0587C7.3022 11.987 7.64428 11.7371 8.32844 11.2372L8.32846 11.2372Z" stroke="#DDDD01" stroke-width="1.4" stroke-linecap="round" stroke-linejoin="round"/>
</svg>
