<svg width="20" height="21" viewBox="0 0 20 21" fill="none" xmlns="http://www.w3.org/2000/svg">
<path d="M1.85583 6.98903L1.27606 7.14352L1.27606 7.14352L1.85583 6.98903ZM2.09494 7.8864L2.67471 7.73191L2.09494 7.8864ZM13.4096 8.19507L13.2535 7.61573L13.4096 8.19507ZM17.7083 7.03682L17.8644 7.61616L17.8655 7.61586L17.7083 7.03682ZM6.11992 10.1592L5.96382 9.57989L6.11992 10.1592ZM8.65647 9.47577L8.81257 10.0551L8.65647 9.47577ZM1.72071 5.78681L2.26891 6.0307L2.26891 6.03069L1.72071 5.78681ZM2.94772 5.13861L2.79162 4.55928L2.94772 5.13861ZM3.75483 5.01322L3.8755 4.42548L3.8755 4.42548L3.75483 5.01322ZM12.8991 8.61116L13.4346 8.88184L12.8991 8.61116ZM11.8764 10.6345L12.3931 10.9394C12.3997 10.9282 12.406 10.9168 12.4118 10.9052L11.8764 10.6345ZM10.8706 11.3972L11.0267 11.9765L10.8706 11.3972ZM8.98633 11.9049L8.83023 11.3256V11.3256L8.98633 11.9049ZM8.47865 11.4343L9.06543 11.5596V11.5596L8.47865 11.4343ZM8.85603 9.66659L8.26925 9.54132L8.26925 9.54132L8.85603 9.66659ZM11.5185 4.10411L11.7755 4.64625L11.7755 4.64625L11.5185 4.10411ZM6.81158 6.37525L6.55083 5.83487V5.83487L6.81158 6.37525ZM4.86041 6.00324L5.30659 5.60209L5.30659 5.60209L4.86041 6.00324ZM18.1853 5.77522L18.672 5.42436L18.6692 5.42056L18.1853 5.77522ZM1.27606 7.14352L1.51517 8.04088L2.67471 7.73191L2.4356 6.83454L1.27606 7.14352ZM13.5657 8.7744L17.8644 7.61616L17.5522 6.45748L13.2535 7.61573L13.5657 8.7744ZM6.27602 10.7386L8.81257 10.0551L8.50037 8.89643L5.96382 9.57989L6.27602 10.7386ZM2.4356 6.83454C2.34819 6.50651 2.29708 6.3109 2.27594 6.16442C2.25675 6.03142 2.27539 6.01613 2.26891 6.0307L1.17252 5.54293C1.05019 5.81789 1.05274 6.08976 1.08824 6.3358C1.1218 6.56836 1.19616 6.84366 1.27606 7.14352L2.4356 6.83454ZM3.10382 5.71795C3.31811 5.66021 3.44231 5.62729 3.53721 5.61036C3.58022 5.60268 3.60513 5.60069 3.61896 5.60035C3.62551 5.60019 3.62935 5.60042 3.63114 5.60057C3.63285 5.60071 3.63367 5.60086 3.63416 5.60096L3.8755 4.42548C3.67719 4.38477 3.49495 4.39895 3.32645 4.42901C3.16848 4.45719 2.9861 4.50687 2.79162 4.55928L3.10382 5.71795ZM1.51517 8.04088C1.70746 8.7625 1.86623 9.36351 2.05786 9.82103C2.25666 10.2957 2.52329 10.699 2.97957 10.9567L3.56962 9.91176C3.43646 9.83657 3.31 9.70434 3.1647 9.35743C3.01223 8.99341 2.8759 8.48695 2.67471 7.73191L1.51517 8.04088ZM5.96382 9.57989C5.19577 9.78684 4.67664 9.92544 4.27536 9.97872C3.89012 10.0299 3.70473 9.98806 3.56962 9.91176L2.97957 10.9567C3.4339 11.2132 3.91922 11.2365 4.4333 11.1683C4.93134 11.1022 5.54015 10.9368 6.27602 10.7386L5.96382 9.57989ZM12.3636 8.34049L11.3409 10.3639L12.4118 10.9052L13.4346 8.88184L12.3636 8.34049ZM10.7145 10.8178L8.83023 11.3256L9.14243 12.4842L11.0267 11.9765L10.7145 10.8178ZM9.06543 11.5596L9.44281 9.79185L8.26925 9.54132L7.89187 11.3091L9.06543 11.5596ZM8.83023 11.3256C8.94986 11.2933 9.09955 11.3998 9.06543 11.5596L7.89187 11.3091C7.73134 12.0611 8.42989 12.6762 9.14243 12.4842L8.83023 11.3256ZM11.3596 10.3296C11.2192 10.5676 10.9875 10.7443 10.7145 10.8178L11.0267 11.9765C11.5999 11.8221 12.0918 11.4501 12.3931 10.9394L11.3596 10.3296ZM11.2614 3.56197C9.68534 4.30929 8.1145 5.08033 6.55083 5.83487L7.07234 6.91562C8.64631 6.15611 10.2038 5.39152 11.7755 4.64625L11.2614 3.56197ZM2.79162 4.55928C2.6432 4.59927 2.29945 4.66991 2.02901 4.77752C1.73536 4.89437 1.36551 5.10912 1.17252 5.54293L2.26891 6.03069C2.27833 6.00951 2.30962 5.95738 2.47269 5.89249C2.65897 5.81836 2.82752 5.7924 3.10382 5.71795L2.79162 4.55928ZM5.30659 5.60209C5.24444 5.53296 5.17904 5.45093 5.09192 5.34307C5.01011 5.24178 4.91274 5.12238 4.80611 5.00821C4.6054 4.79331 4.29681 4.51198 3.8755 4.42548L3.63416 5.60096C3.67508 5.60937 3.76816 5.65495 3.92912 5.82729C4.00333 5.90675 4.07679 5.99604 4.15839 6.09707C4.23467 6.19152 4.32525 6.30542 4.41422 6.40438L5.30659 5.60209ZM6.55083 5.83487C6.08549 6.05941 5.93124 6.06941 5.85657 6.05559C5.78692 6.04269 5.64899 5.98294 5.30659 5.60209L4.41422 6.40438C4.76331 6.79267 5.13704 7.14278 5.63814 7.23554C6.13423 7.32737 6.60981 7.13881 7.07234 6.91562L6.55083 5.83487ZM18.6692 5.42056C16.9751 3.10887 13.8351 2.34158 11.2614 3.56197L11.7755 4.64625C13.8363 3.66911 16.352 4.28863 17.7013 6.12989L18.6692 5.42056ZM17.8655 7.61586C18.7572 7.37375 19.2865 6.27691 18.672 5.42437L17.6985 6.12608C17.7375 6.18005 17.7444 6.24035 17.7181 6.30679C17.6892 6.37948 17.6273 6.43709 17.5511 6.45778L17.8655 7.61586ZM8.81257 10.0551C8.48996 10.142 8.20221 9.85536 8.26925 9.54132L9.44281 9.79186C9.5605 9.24057 9.05606 8.74671 8.50037 8.89643L8.81257 10.0551ZM13.2535 7.61573C12.867 7.71986 12.5439 7.98385 12.3636 8.34049L13.4346 8.88184C13.4618 8.82798 13.5099 8.78945 13.5657 8.7744L13.2535 7.61573Z" fill="#666666"/>
<path d="M1.66699 16.9197H15.0003" stroke="#666666" stroke-width="1.2" stroke-linecap="round" stroke-linejoin="round"/>
</svg>
