<svg width="24" height="25" viewBox="0 0 24 25" fill="none" xmlns="http://www.w3.org/2000/svg">
<path d="M22 9.13188C21.9331 7.5898 21.7456 6.58591 21.2203 5.79177C20.9181 5.33489 20.5428 4.93752 20.1112 4.61761C18.9447 3.75293 17.299 3.75293 14.0078 3.75293H9.99305C6.70178 3.75293 5.05614 3.75293 3.88962 4.61761C3.45805 4.93752 3.08267 5.33489 2.78047 5.79177C2.25526 6.58582 2.06776 7.58958 2.00083 9.13136C1.98938 9.39501 2.21648 9.59668 2.46531 9.59668C3.85109 9.59668 4.97449 10.7859 4.97449 12.2529C4.97449 13.7199 3.85109 14.9092 2.46531 14.9092C2.21648 14.9092 1.98938 15.1109 2.00083 15.3745C2.06776 16.9163 2.25526 17.92 2.78047 18.7141C3.08267 19.171 3.45805 19.5683 3.88962 19.8883C5.05614 20.7529 6.70178 20.7529 9.99306 20.7529H14.0078C17.299 20.7529 18.9447 20.7529 20.1112 19.8883C20.5428 19.5683 20.9181 19.171 21.2203 18.7141C21.7456 17.92 21.9331 16.9161 22 15.374V9.13188Z" stroke="#2BB2E1" stroke-width="1.5" stroke-linejoin="round"/>
<path d="M13 12.2529L17 12.2529" stroke="#2BB2E1" stroke-width="1.5" stroke-linecap="round" stroke-linejoin="round"/>
<path d="M9 16.2529L17 16.2529" stroke="#2BB2E1" stroke-width="1.5" stroke-linecap="round" stroke-linejoin="round"/>
</svg>
