<svg width="14" height="15" viewBox="0 0 14 15" fill="none" xmlns="http://www.w3.org/2000/svg">
<path d="M6.33398 7.91992H9.66732M4.33398 7.91992H4.33997M7.66732 10.5866H4.33398M9.66732 10.5866H9.66133" stroke="#D9D9D9" stroke-width="0.9" stroke-linecap="round" stroke-linejoin="round"/>
<path d="M11 0.586426V1.91976M3 0.586426V1.91976" stroke="#D9D9D9" stroke-width="0.9" stroke-linecap="round" stroke-linejoin="round"/>
<path d="M0.666992 7.41534C0.666992 4.51046 0.666992 3.05803 1.50174 2.1556C2.33648 1.25317 3.67999 1.25317 6.36699 1.25317H7.63366C10.3207 1.25317 11.6642 1.25317 12.4989 2.1556C13.3337 3.05803 13.3337 4.51046 13.3337 7.41534V7.75768C13.3337 10.6625 13.3337 12.115 12.4989 13.0174C11.6642 13.9198 10.3207 13.9198 7.63366 13.9198H6.36699C3.67999 13.9198 2.33648 13.9198 1.50174 13.0174C0.666992 12.115 0.666992 10.6625 0.666992 7.75768V7.41534Z" stroke="#D9D9D9" stroke-width="0.9" stroke-linecap="round" stroke-linejoin="round"/>
<path d="M1 4.58643H13" stroke="#D9D9D9" stroke-width="0.9" stroke-linecap="round" stroke-linejoin="round"/>
</svg>
