<svg width="64" height="33" viewBox="0 0 64 33" fill="none" xmlns="http://www.w3.org/2000/svg">
<path d="M23.7395 24.6777L26.5862 7.97263H31.1394L28.2907 24.6777H23.7395Z" fill="#0E4595"/>
<path d="M44.7408 8.33284C43.8389 7.9944 42.4253 7.63123 40.66 7.63123C36.1608 7.63123 32.9917 9.89691 32.9647 13.1441C32.9393 15.5444 35.2272 16.8835 36.9543 17.6826C38.7267 18.5015 39.3225 19.0237 39.314 19.7547C39.3026 20.8745 37.8986 21.3859 36.5898 21.3859C34.7675 21.3859 33.7993 21.1328 32.3039 20.5092L31.7171 20.2437L31.0781 23.9832C32.1416 24.4497 34.1081 24.8535 36.1502 24.8745C40.9365 24.8745 44.0437 22.6347 44.079 19.1671C44.096 17.2667 42.883 15.8207 40.256 14.6284C38.6645 13.8556 37.6898 13.3399 37.7002 12.5574C37.7002 11.8631 38.5252 11.1206 40.3079 11.1206C41.7967 11.0975 42.8754 11.4222 43.7157 11.7606L44.1237 11.9534L44.7408 8.33284Z" fill="#0E4595"/>
<path d="M56.4577 7.97246H52.9394C51.8495 7.97246 51.0338 8.26993 50.5551 9.35776L43.793 24.6667H48.5743C48.5743 24.6667 49.3559 22.6084 49.5327 22.1564C50.0552 22.1564 54.7001 22.1636 55.3641 22.1636C55.5003 22.7484 55.9181 24.6667 55.9181 24.6667H60.1431L56.4577 7.97246ZM50.8755 18.7593C51.2521 17.7968 52.6897 14.0895 52.6897 14.0895C52.6629 14.134 53.0635 13.1223 53.2933 12.4951L53.6011 13.9354C53.6011 13.9354 54.4729 17.9229 54.6551 18.759H50.8755V18.7593Z" fill="#0E4595"/>
<path d="M3.9151 7.97263L3.85693 8.32013C5.65687 8.75584 7.26446 9.38647 8.67193 10.171L12.7121 24.651L17.5296 24.6456L24.6979 7.97263H19.8744L15.4168 19.3643L14.9419 17.0491C14.9197 16.9776 14.8955 16.9059 14.8708 16.8341L13.3211 9.38296C13.0456 8.32517 12.2462 8.00949 11.2573 7.97263H3.9151Z" fill="#0E4595"/>
</svg>
