<svg width="18" height="19" viewBox="0 0 18 19" fill="none" xmlns="http://www.w3.org/2000/svg">
<path d="M9.0349 2.09514C5.11217 2.09105 1.91356 5.26723 1.91356 9.18069C1.91356 10.517 2.2872 11.8224 3.00269 12.9525C3.00299 12.953 3.00329 12.9535 3.00359 12.954L3.04236 13.0161L2.43196 15.2343L2.20214 16.0695L3.04029 15.8508L5.34311 15.2499L5.40359 15.2862L5.40358 15.2862L5.40649 15.2879C6.5008 15.9348 7.75357 16.2736 9.02895 16.2776H9.03055H9.03438C12.9566 16.2776 16.1552 13.1018 16.1552 9.18829C16.1552 7.29455 15.4143 5.5134 14.0715 4.17284C12.7278 2.83148 10.935 2.09527 9.0349 2.09514ZM9.0349 2.09514L9.03438 2.59514V2.09514C9.03455 2.09514 9.03472 2.09514 9.0349 2.09514ZM1.71243 16.5491L2.6129 13.2792L2.66859 13.077L2.56336 12.8956C1.90851 11.7666 1.56519 10.4886 1.56877 9.18206V9.18069C1.56877 5.0866 4.91843 1.75293 9.03438 1.75293C11.0346 1.75293 12.9092 2.52607 14.3164 3.93007L14.3168 3.93052C15.728 5.33505 16.5036 7.19975 16.5 9.18359V9.18449C16.5 13.2784 13.1505 16.6122 9.03055 16.6122H9.02674C7.77694 16.6122 6.54834 16.2986 5.45591 15.7068L5.28209 15.6127L5.09089 15.6628L1.71243 16.5491Z" fill="#2BB2E1" stroke="#2BB2E1"/>
<path d="M1 17.2529L2.13085 13.1465C1.43171 11.9411 1.06495 10.5761 1.06877 9.18069C1.06877 4.80806 4.6447 1.25293 9.03438 1.25293C11.1662 1.25293 13.1681 2.07802 14.6695 3.57612C16.1748 5.07422 17.0038 7.06662 17 9.18449C17 13.5571 13.4241 17.1122 9.03055 17.1122H9.02674C7.6934 17.1122 6.38299 16.7776 5.21776 16.1465L1 17.2529ZM5.42024 14.713L5.66093 14.8575C6.67717 15.4583 7.8424 15.7738 9.03055 15.7776H9.03438C12.6829 15.7776 15.6552 12.8233 15.6552 9.18829C15.6552 7.42783 14.9675 5.77384 13.7182 4.52669C12.4689 3.27955 10.8032 2.59514 9.03438 2.59514C5.38586 2.59133 2.41356 5.54571 2.41356 9.18069C2.41356 10.424 2.76122 11.637 3.42598 12.6864L3.58261 12.9373L2.91404 15.367L5.42024 14.713Z" fill="url(#paint0_linear_126_10000)"/>
<path fill-rule="evenodd" clip-rule="evenodd" d="M7.04392 5.86505C6.89492 5.53425 6.73828 5.52665 6.59693 5.52285C6.48232 5.51904 6.3486 5.51904 6.21489 5.51904C6.08117 5.51904 5.86723 5.56847 5.68384 5.76619C5.50046 5.96391 4.98853 6.443 4.98853 7.42018C4.98853 8.39357 5.70295 9.33653 5.80228 9.46961C5.90161 9.60269 7.18146 11.6673 9.20247 12.462C10.8835 13.1236 11.2273 12.9905 11.5902 12.9563C11.9532 12.9221 12.7669 12.4772 12.935 12.0133C13.0993 11.5495 13.0993 11.154 13.0496 11.0704C13 10.9867 12.8663 10.9373 12.6676 10.8384C12.4689 10.7396 11.4909 10.2605 11.3075 10.192C11.1241 10.1274 10.9904 10.0932 10.8605 10.2909C10.7268 10.4886 10.3448 10.9335 10.2302 11.0666C10.1156 11.1997 9.99712 11.2149 9.79845 11.116C9.59979 11.0171 8.95796 10.808 8.19769 10.1312C7.60552 9.6065 7.20438 8.95631 7.08976 8.75859C6.97515 8.56087 7.0783 8.4544 7.17763 8.35555C7.2655 8.26809 7.3763 8.12361 7.47563 8.00954C7.57496 7.89547 7.60934 7.81182 7.67429 7.67874C7.73924 7.54566 7.70868 7.43159 7.65901 7.33273C7.60934 7.23767 7.21966 6.25669 7.04392 5.86505Z" fill="#2BB2E1"/>
<defs>
<linearGradient id="paint0_linear_126_10000" x1="9.00155" y1="17.2514" x2="9.00155" y2="1.25293" gradientUnits="userSpaceOnUse">
<stop stop-color="#2BB2E1"/>
<stop offset="1" stop-color="#2BB2E1"/>
</linearGradient>
</defs>
</svg>
