<svg width="16" height="10" viewBox="0 0 16 10" fill="none" xmlns="http://www.w3.org/2000/svg">
<path fill-rule="evenodd" clip-rule="evenodd" d="M8.67655 1.0125C8.22989 1.45834 8.07572 2.96834 8.03405 4.42246L8.02905 6.08913C8.07322 7.9533 8.28989 9.09496 8.67655 9.48163C9.14655 9.9508 9.92989 9.70996 10.5599 9.4483C11.8674 8.9058 15.6474 6.61746 15.6474 5.24663C15.6474 3.83413 11.6991 1.55334 10.4999 1.05584C9.84822 0.785003 9.12239 0.568337 8.67655 1.0125Z" fill="white"/>
<path opacity="0.4" fill-rule="evenodd" clip-rule="evenodd" d="M8.03337 4.42265H1.18587C0.725039 4.42265 0.352539 4.79515 0.352539 5.25599C0.352539 5.71682 0.725039 6.08932 1.18587 6.08932H8.02837L8.03337 4.42265Z" fill="white"/>
</svg>
