<svg width="20" height="12" viewBox="0 0 20 12" fill="none" xmlns="http://www.w3.org/2000/svg">
<path fill-rule="evenodd" clip-rule="evenodd" d="M10.8119 1.16441C10.2759 1.69941 10.0909 3.51141 10.0409 5.25636L10.0349 7.25636C10.0879 9.49336 10.3479 10.8634 10.8119 11.3274C11.3759 11.8904 12.3159 11.6014 13.0719 11.2874C14.6409 10.6364 19.1769 7.89037 19.1769 6.24537C19.1769 4.55036 14.4389 1.81341 12.9999 1.21641C12.2179 0.891415 11.3469 0.631415 10.8119 1.16441Z" fill="#DDDD01"/>
<path opacity="0.4" fill-rule="evenodd" clip-rule="evenodd" d="M10.04 5.25659H1.823C1.27 5.25659 0.822998 5.70359 0.822998 6.25659C0.822998 6.80959 1.27 7.25659 1.823 7.25659H10.034L10.04 5.25659Z" fill="#DDDD01"/>
</svg>
