<svg width="24" height="25" viewBox="0 0 24 25" fill="none" xmlns="http://www.w3.org/2000/svg">
<path d="M23.5057 6.48224C23.2289 5.45424 22.4184 4.6437 21.3904 4.36693C19.5123 3.85293 11.9999 3.85293 11.9999 3.85293C11.9999 3.85293 4.48762 3.85293 2.60954 4.34716C1.60131 4.62393 0.771002 5.45424 0.494232 6.48224C0 8.36032 0 12.2549 0 12.2549C0 12.2549 0 16.1692 0.494232 18.0275C0.771002 19.0555 1.58154 19.866 2.60954 20.1428C4.50739 20.6568 11.9999 20.6568 11.9999 20.6568C11.9999 20.6568 19.5123 20.6568 21.3904 20.1626C22.4184 19.8858 23.2289 19.0753 23.5057 18.0473C23.9999 16.1692 23.9999 12.2746 23.9999 12.2746C23.9999 12.2746 24.0197 8.36032 23.5057 6.48224Z" fill="white"/>
<path d="M9.60791 15.8529L15.855 12.2549L9.60791 8.65685V15.8529Z" fill="#2BB2E1"/>
</svg>
