<svg width="24" height="25" viewBox="0 0 24 25" fill="none" xmlns="http://www.w3.org/2000/svg">
<path d="M2 21.6932C2.68524 22.7443 3.57104 22.7443 4.27299 21.6932C6.52985 18.2408 8.67954 24.1764 10.273 21.7321C12.703 18.0694 14.4508 24.4218 16.273 21.6932C18.6492 18.0582 20.1295 24.0776 22 22.0842" stroke="#2BB2E1" stroke-width="1.5" stroke-linecap="round"/>
<path d="M3.57228 17.5L2.07481 13.1457C1.80373 12.3574 2.30283 11.5 3.03273 11.5H20.8582C23.9522 11.5 19.9943 17.5 17.9966 17.5" stroke="#2BB2E1" stroke-width="1.5" stroke-linecap="round" stroke-linejoin="round"/>
<path d="M18 11.5L15.201 8.00122C14.4419 7.05236 13.2926 6.5 12.0775 6.5H8C6.89543 6.5 6 7.39543 6 8.5V11.5" stroke="#2BB2E1" stroke-width="1.5" stroke-linecap="round" stroke-linejoin="round"/>
<path d="M10 6.5V3.5C10 2.94772 9.55228 2.5 9 2.5H8" stroke="#2BB2E1" stroke-width="1.5" stroke-linecap="round" stroke-linejoin="round"/>
</svg>
