<svg width="24" height="25" viewBox="0 0 24 25" fill="none" xmlns="http://www.w3.org/2000/svg">
<path d="M2.06571 12.4131C2.18114 11.7834 2.68891 11.1396 3.50833 10.5839C4.98376 9.58324 6.66888 9.58736 8.35557 9.52491C8.91534 9.50416 10.4184 9.49732 12 9.50091C13.5816 9.49732 15.0847 9.50416 15.6444 9.52491C17.3311 9.58736 19.0162 9.58324 20.4917 10.5839C21.3111 11.1396 21.8189 11.7834 21.9343 12.4131C22.0334 12.9536 22.0181 14.8084 21.9038 16.1173C21.8435 16.8073 21.7822 17.1432 21.6906 17.2844C21.4143 17.7103 20.6166 18.0685 19.4432 18.2934C18.342 18.5045 18.5057 18.5 12 18.5C5.49426 18.5 5.65801 18.5045 4.55683 18.2934C3.38339 18.0685 2.58573 17.7103 2.3094 17.2844C2.21784 17.1432 2.15649 16.8073 2.0962 16.1173C1.98188 14.8084 1.9666 12.9536 2.06571 12.4131Z" stroke="#2BB2E1" stroke-width="1.5" stroke-linecap="round" stroke-linejoin="round"/>
<path d="M4.5 9.5L5.81325 4.99011C5.93387 4.69009 6.1683 4.43951 6.49868 4.32716C9.74166 3.22428 14.2583 3.22428 17.5013 4.32716C17.8317 4.43951 18.0661 4.69009 18.1868 4.99011L19.5 9.5" stroke="#2BB2E1" stroke-width="1.5" stroke-linecap="round" stroke-linejoin="round"/>
<path d="M2.5 12.5L4 13" stroke="#2BB2E1" stroke-width="1.5" stroke-linecap="round" stroke-linejoin="round"/>
<path d="M21.5 12.5L20 13" stroke="#2BB2E1" stroke-width="1.5" stroke-linecap="round" stroke-linejoin="round"/>
<path d="M8 18L8.24567 17.3858C8.61101 16.4725 8.79368 16.0158 9.17461 15.7579C9.55553 15.5 10.0474 15.5 11.0311 15.5H12.9689C13.9526 15.5 14.4445 15.5 14.8254 15.7579C15.2063 16.0158 15.389 16.4725 15.7543 17.3858L16 18" stroke="#2BB2E1" stroke-width="1.5" stroke-linecap="round" stroke-linejoin="round"/>
<path d="M7.00161 19.0623V19.8644C7.00167 20.7388 6.96338 20.9026 6.69942 21.1579C6.62218 21.2325 6.4652 21.3401 6.35062 21.3969C6.14999 21.4962 6.0827 21.5 4.52768 21.5C2.93772 21.5 2.90928 21.4983 2.66428 21.3876C2.5274 21.3257 2.35474 21.2021 2.28058 21.1128C2.0188 20.7978 2.00635 20.7049 2.00391 19.0459L2.00458 15.5" stroke="#2BB2E1" stroke-width="1.5" stroke-linecap="round"/>
<path d="M16.9984 19.0623V19.8644C16.9983 20.7388 17.0366 20.9026 17.3006 21.1579C17.3778 21.2325 17.5348 21.3401 17.6494 21.3969C17.85 21.4962 17.9173 21.5 19.4723 21.5C21.0623 21.5 21.0907 21.4983 21.3357 21.3876C21.4726 21.3257 21.6453 21.2021 21.7194 21.1128C21.9812 20.7978 21.9936 20.7049 21.9961 19.0459L21.9954 15.5" stroke="#2BB2E1" stroke-width="1.5" stroke-linecap="round"/>
<path d="M20 9.5L21.5 9" stroke="#2BB2E1" stroke-width="1.5" stroke-linecap="round" stroke-linejoin="round"/>
<path d="M4 9.5L2.5 9" stroke="#2BB2E1" stroke-width="1.5" stroke-linecap="round" stroke-linejoin="round"/>
</svg>
