<svg width="24" height="25" viewBox="0 0 24 25" fill="none" xmlns="http://www.w3.org/2000/svg">
<path d="M12 17.5C10.3264 17.5 8.86971 18.765 8.11766 20.6312C7.75846 21.5225 8.27389 22.5 8.95877 22.5H15.0412C15.7261 22.5 16.2415 21.5225 15.8823 20.6312C15.1303 18.765 13.6736 17.5 12 17.5Z" stroke="#2BB2E1" stroke-width="1.5" stroke-linecap="round"/>
<path d="M18.5 5.5H19.7022C20.9031 5.5 21.5035 5.5 21.8168 5.87736C22.13 6.25472 21.9998 6.82113 21.7393 7.95395L21.3485 9.65307C20.7609 12.2086 18.6109 14.1088 16 14.5" stroke="#2BB2E1" stroke-width="1.5" stroke-linecap="round" stroke-linejoin="round"/>
<path d="M5.5 5.5H4.29779C3.09692 5.5 2.49649 5.5 2.18324 5.87736C1.86999 6.25472 2.00024 6.82113 2.26075 7.95395L2.65148 9.65307C3.23914 12.2086 5.38912 14.1088 8 14.5" stroke="#2BB2E1" stroke-width="1.5" stroke-linecap="round" stroke-linejoin="round"/>
<path d="M12 17.5C15.0208 17.5 17.565 12.8379 18.3297 6.49089C18.5412 4.73558 18.647 3.85793 18.0868 3.17896C17.5267 2.5 16.6223 2.5 14.8134 2.5L9.18658 2.5C7.37775 2.5 6.47333 2.5 5.91317 3.17896C5.35301 3.85793 5.45875 4.73558 5.67025 6.49089C6.435 12.8379 8.97923 17.5 12 17.5Z" stroke="#2BB2E1" stroke-width="1.5" stroke-linecap="round"/>
</svg>
