<svg width="24" height="25" viewBox="0 0 24 25" fill="none" xmlns="http://www.w3.org/2000/svg">
<path d="M14.001 3.99988C17.7722 3.99988 19.6578 3.99988 20.8294 5.24467C22.001 6.48947 22.001 8.49294 22.001 12.4999C22.001 16.5068 22.001 18.5103 20.8294 19.7551C19.6578 20.9999 17.7722 20.9999 14.001 20.9999L10.001 20.9999C6.22974 20.9999 4.34412 20.9999 3.17255 19.7551C2.00098 18.5103 2.00098 16.5068 2.00098 12.4999C2.00098 8.49294 2.00098 6.48947 3.17255 5.24467C4.34412 3.99988 6.22974 3.99988 10.001 3.99988L14.001 3.99988Z" stroke="#2BB2E1" stroke-width="1.5" stroke-linejoin="round"/>
<path d="M5.00098 15.9999C6.60963 13.8625 10.3549 13.7458 12.001 15.9999M10.25 10.75C10.25 11.7165 9.4665 12.5 8.5 12.5C7.5335 12.5 6.75 11.7165 6.75 10.75C6.75 9.7835 7.5335 9 8.5 9C9.4665 9 10.25 9.7835 10.25 10.75Z" stroke="#2BB2E1" stroke-width="1.5" stroke-linecap="round"/>
<path d="M15.001 9.99988L19.001 9.99988" stroke="#2BB2E1" stroke-width="1.5" stroke-linecap="round"/>
<path d="M15.001 13.9999L17.001 13.9999" stroke="#2BB2E1" stroke-width="1.5" stroke-linecap="round"/>
</svg>
