<svg width="24" height="25" viewBox="0 0 24 25" fill="none" xmlns="http://www.w3.org/2000/svg">
<path d="M22 10.5L22 9.71749C22 7.77787 22 6.80807 21.4142 6.2055C20.8284 5.60294 19.8856 5.60294 18 5.60294H15.9214C15.004 5.60294 14.9964 5.60116 14.1715 5.18834L10.8399 3.52114C9.44884 2.82504 8.75332 2.47699 8.01238 2.50118C7.27143 2.52537 6.59877 2.91808 5.25345 3.70351L4.02558 4.42037C3.03739 4.99729 2.54329 5.28576 2.27164 5.76564C2 6.24553 2 6.82993 2 7.99873L2 16.2157C2 17.7514 2 18.5193 2.34226 18.9467C2.57001 19.231 2.88916 19.4222 3.242 19.4856C3.77226 19.5808 4.42148 19.2018 5.71987 18.4437C6.60156 17.929 7.45011 17.3944 8.50487 17.5394C9.38869 17.6608 10.21 18.2185 11 18.6138" stroke="#2BB2E1" stroke-width="1.5" stroke-linecap="round" stroke-linejoin="round"/>
<path d="M8 2.5L8 17.5" stroke="#2BB2E1" stroke-width="1.5" stroke-linejoin="round"/>
<path d="M15 5.5L15 10" stroke="#2BB2E1" stroke-width="1.5" stroke-linecap="round" stroke-linejoin="round"/>
<path d="M18.3083 22.1835C18.0915 22.3865 17.8017 22.5 17.5001 22.5C17.1985 22.5 16.9087 22.3865 16.6919 22.1835C14.7063 20.313 12.0455 18.2235 13.3431 15.1898C14.0447 13.5496 15.7289 12.5 17.5001 12.5C19.2713 12.5 20.9555 13.5496 21.6571 15.1898C22.9531 18.2196 20.2988 20.3194 18.3083 22.1835Z" stroke="#2BB2E1" stroke-width="1.5"/>
<path d="M17.5 17H17.509" stroke="#2BB2E1" stroke-width="2" stroke-linecap="round" stroke-linejoin="round"/>
</svg>
