<svg width="24" height="25" viewBox="0 0 24 25" fill="none" xmlns="http://www.w3.org/2000/svg">
<path d="M19.4173 16.2133C23.368 11.2038 22.3007 6.23508 19.4626 4.49415C16.7809 2.84923 14.4404 3.51211 13.0344 4.56801L11.9998 5.34158M19.4173 16.2133C18.469 17.4156 17.2317 18.6204 15.6605 19.7834C14.1143 20.9278 13.3412 21.5 12 21.5C10.6588 21.5 9.88572 20.9278 8.33953 19.7834C0.22172 13.7749 1.01807 6.65293 4.53744 4.49415C7.21909 2.84923 9.55962 3.51211 10.9656 4.56801L11.9998 5.34158M19.4173 16.2133L13.8921 9.94479C13.6659 9.6882 13.2873 9.63296 12.9972 9.81424L10.8111 11.1806C10.0418 11.6614 9.04334 11.5532 8.3949 10.9187C7.53837 10.0806 7.62479 8.67769 8.5777 7.95106L11.9998 5.34158" stroke="#2BB2E1" stroke-width="1.5" stroke-linecap="round" stroke-linejoin="round"/>
</svg>
