<svg width="24" height="25" viewBox="0 0 24 25" fill="none" xmlns="http://www.w3.org/2000/svg">
<path d="M12.9502 22.5C15.5949 22.5 16.9172 22.5 17.8666 21.7437C18.8159 20.9874 19.1188 19.6927 19.7245 17.1033L21.6419 8.90693C21.9772 7.4736 22.1448 6.75693 21.8404 6.23787C21.2876 5.29526 19.8787 5.49997 18.9592 5.49997" stroke="#2BB2E1" stroke-width="1.5" stroke-linecap="round" stroke-linejoin="round"/>
<path d="M2 9.5C2 6.20017 2 4.55025 3.02513 3.52513C4.05025 2.5 5.70017 2.5 9 2.5H12C15.2998 2.5 16.9497 2.5 17.9749 3.52513C19 4.55025 19 6.20017 19 9.5V15.5C19 18.7998 19 20.4497 17.9749 21.4749C16.9497 22.5 15.2998 22.5 12 22.5H9C5.70017 22.5 4.05025 22.5 3.02513 21.4749C2 20.4497 2 18.7998 2 15.5V9.5Z" stroke="#2BB2E1" stroke-width="1.5"/>
<path d="M10.5 6.5C12.7091 6.5 14.5 8.29086 14.5 10.5C14.5 12.7091 12.7091 14.5 10.5 14.5M10.5 6.5C8.29086 6.5 6.5 8.29086 6.5 10.5C6.5 12.7091 8.29086 14.5 10.5 14.5M10.5 6.5C9.67157 6.5 9 8.29086 9 10.5C9 12.7091 9.67157 14.5 10.5 14.5M10.5 6.5C11.3284 6.5 12 8.29086 12 10.5C12 12.7091 11.3284 14.5 10.5 14.5" stroke="#2BB2E1" stroke-width="1.5"/>
<path d="M7 17.5L14 17.5" stroke="#2BB2E1" stroke-width="1.5" stroke-linecap="round"/>
</svg>
