<svg width="24" height="25" viewBox="0 0 24 25" fill="none" xmlns="http://www.w3.org/2000/svg">
<path d="M4.41712 12.4183L7.73859 10.3966C8.29597 10.0578 8.57467 9.88846 8.76705 9.65616C9.59962 8.65082 8.86644 7.16595 8.99059 5.99686C9.1191 4.78671 10.2731 3.13158 11.4364 2.61845C11.7944 2.46052 12.2051 2.46052 12.5631 2.61845C13.7264 3.13158 14.8804 4.78671 15.0089 5.99686C15.1331 7.16595 14.3999 8.65082 15.2325 9.65616C15.4248 9.88846 15.7035 10.0578 16.2609 10.3966L19.5827 12.4182C20.5993 13.0369 20.9998 13.6973 20.9998 14.9395C20.9998 15.6156 20.7006 15.7968 20.0973 15.6588L14.2725 14.3261L14.0109 16.6149C13.9161 17.4448 13.8687 17.8598 14.0058 18.2398C14.327 19.13 15.4173 19.8591 16.0832 20.5066C16.4513 20.8644 16.8529 21.8934 16.4333 22.3613C16.1742 22.6503 15.7533 22.4157 15.4637 22.303L12.675 21.2184C12.3416 21.0887 12.1748 21.0239 11.9998 21.0239C11.8247 21.0239 11.6579 21.0887 11.3245 21.2184L8.53584 22.303C8.24619 22.4157 7.82534 22.6503 7.56625 22.3613C7.1466 21.8934 7.54825 20.8644 7.91628 20.5066C8.5822 19.8591 9.67255 19.13 9.9937 18.2398C10.1308 17.8598 10.0834 17.4448 9.98857 16.6149L9.72703 14.3261L3.90259 15.6587C3.29902 15.7968 2.99982 15.6155 3.00001 14.9391C3.00034 13.6971 3.4007 13.037 4.41712 12.4183Z" stroke="#2BB2E1" stroke-width="1.5" stroke-linecap="round" stroke-linejoin="round"/>
</svg>
