<svg width="24" height="25" viewBox="0 0 24 25" fill="none" xmlns="http://www.w3.org/2000/svg">
<path d="M4 11.5V10.5C4 6.72876 4 4.84315 5.17157 3.67157C6.34315 2.5 8.22876 2.5 12 2.5C15.7712 2.5 17.6569 2.5 18.8284 3.67157C20 4.84315 20 6.72876 20 10.5V11.5C20 15.2712 20 17.1569 18.8284 18.3284C17.6569 19.5 15.7712 19.5 12 19.5C8.22876 19.5 6.34315 19.5 5.17157 18.3284C4 17.1569 4 15.2712 4 11.5Z" stroke="#2BB2E1" stroke-width="1.5" stroke-linejoin="round"/>
<path d="M4 12.5C4 12.5 7.73333 13.5 12 13.5C16.2667 13.5 20 12.5 20 12.5" stroke="#2BB2E1" stroke-width="1.5" stroke-linejoin="round"/>
<path d="M7 19.5L5 22.5" stroke="#2BB2E1" stroke-width="1.5" stroke-linecap="round" stroke-linejoin="round"/>
<path d="M17 19.5L19 22.5" stroke="#2BB2E1" stroke-width="1.5" stroke-linecap="round" stroke-linejoin="round"/>
<path d="M4.5 16.5H6.5" stroke="#2BB2E1" stroke-width="1.5" stroke-linecap="round"/>
<path d="M17.5 16.5H19.5" stroke="#2BB2E1" stroke-width="1.5" stroke-linecap="round"/>
<path d="M5 5.5H19" stroke="#2BB2E1" stroke-width="1.5" stroke-linecap="round"/>
</svg>
