<svg width="24" height="25" viewBox="0 0 24 25" fill="none" xmlns="http://www.w3.org/2000/svg">
<path d="M11 13.5L16 13.5M8 13.5H8.00898M13 17.5H8M16 17.5H15.991" stroke="#2BB2E1" stroke-width="1.5" stroke-linecap="round" stroke-linejoin="round"/>
<path d="M18 2.5V4.5M6 2.5L6 4.5" stroke="#2BB2E1" stroke-width="1.5" stroke-linecap="round" stroke-linejoin="round"/>
<path d="M2.5 12.7432C2.5 8.38594 2.5 6.20728 3.75212 4.85364C5.00424 3.5 7.01949 3.5 11.05 3.5L12.95 3.5C16.9805 3.5 18.9958 3.5 20.2479 4.85364C21.5 6.20728 21.5 8.38594 21.5 12.7432V13.2568C21.5 17.6141 21.5 19.7927 20.2479 21.1464C18.9958 22.5 16.9805 22.5 12.95 22.5H11.05C7.01949 22.5 5.00424 22.5 3.75212 21.1464C2.5 19.7927 2.5 17.6141 2.5 13.2568V12.7432Z" stroke="#2BB2E1" stroke-width="1.5" stroke-linecap="round" stroke-linejoin="round"/>
<path d="M3 8.5L21 8.5" stroke="#2BB2E1" stroke-width="1.5" stroke-linecap="round" stroke-linejoin="round"/>
</svg>
